<svg viewBox="0 0 18 18" fill="none" xmlns="http://www.w3.org/2000/svg">
<path fill-rule="evenodd" clip-rule="evenodd" d="M12 3.00011C12.0002 3.62073 11.808 4.22614 11.4498 4.73296C11.0916 5.23979 10.5851 5.6231 10 5.83011V8.00011H13C13.7957 8.00011 14.5587 8.31618 15.1214 8.87879C15.684 9.4414 16 10.2045 16 11.0001V12.1701C16.6675 12.406 17.2301 12.8703 17.5884 13.4809C17.9467 14.0915 18.0775 14.8091 17.9578 15.5069C17.8382 16.2047 17.4757 16.8377 16.9344 17.294C16.3931 17.7503 15.708 18.0006 15 18.0006C14.2921 18.0006 13.6069 17.7503 13.0657 17.294C12.5244 16.8377 12.1619 16.2047 12.0422 15.5069C11.9225 14.8091 12.0534 14.0915 12.4117 13.4809C12.7699 12.8703 13.3325 12.406 14 12.1701V11.0001C14 10.7349 13.8947 10.4805 13.7071 10.293C13.5196 10.1055 13.2652 10.0001 13 10.0001H5.00003C4.73481 10.0001 4.48046 10.1055 4.29292 10.293C4.10539 10.4805 4.00003 10.7349 4.00003 11.0001V12.1701C4.66752 12.406 5.23012 12.8703 5.58839 13.4809C5.94666 14.0915 6.07752 14.8091 5.95784 15.5069C5.83817 16.2047 5.47566 16.8377 4.9344 17.294C4.39314 17.7503 3.70798 18.0006 3.00003 18.0006C2.29208 18.0006 1.60692 17.7503 1.06566 17.294C0.524399 16.8377 0.161894 16.2047 0.0422185 15.5069C-0.0774567 14.8091 0.0534039 14.0915 0.41167 13.4809C0.769936 12.8703 1.33254 12.406 2.00003 12.1701V11.0001C2.00003 10.2045 2.3161 9.4414 2.87871 8.87879C3.44132 8.31618 4.20438 8.00011 5.00003 8.00011H8.00003V5.83011C7.48118 5.64694 7.02267 5.32465 6.67464 4.89848C6.3266 4.4723 6.10243 3.95864 6.02664 3.41365C5.95084 2.86866 6.02634 2.31333 6.24488 1.80836C6.46342 1.30338 6.81658 0.868212 7.26576 0.550417C7.71494 0.232622 8.24285 0.0444367 8.79176 0.00643464C9.34068 -0.0315675 9.88948 0.0820763 10.3782 0.334942C10.8669 0.587807 11.2766 0.970161 11.5627 1.4402C11.8487 1.91024 12 2.44988 12 3.00011ZM9.00003 2.00011C8.73481 2.00011 8.48046 2.10547 8.29292 2.293C8.10539 2.48054 8.00003 2.73489 8.00003 3.00011C8.00003 3.26533 8.10539 3.51968 8.29292 3.70722C8.48046 3.89475 8.73481 4.00011 9.00003 4.00011C9.26525 4.00011 9.5196 3.89475 9.70714 3.70722C9.89467 3.51968 10 3.26533 10 3.00011C10 2.73489 9.89467 2.48054 9.70714 2.293C9.5196 2.10547 9.26525 2.00011 9.00003 2.00011ZM3.00003 14.0001C2.73481 14.0001 2.48046 14.1055 2.29292 14.293C2.10539 14.4805 2.00003 14.7349 2.00003 15.0001C2.00003 15.2653 2.10539 15.5197 2.29292 15.7072C2.48046 15.8948 2.73481 16.0001 3.00003 16.0001C3.26525 16.0001 3.5196 15.8948 3.70714 15.7072C3.89467 15.5197 4.00003 15.2653 4.00003 15.0001C4.00003 14.7349 3.89467 14.4805 3.70714 14.293C3.5196 14.1055 3.26525 14.0001 3.00003 14.0001ZM15 14.0001C14.7348 14.0001 14.4805 14.1055 14.2929 14.293C14.1054 14.4805 14 14.7349 14 15.0001C14 15.2653 14.1054 15.5197 14.2929 15.7072C14.4805 15.8948 14.7348 16.0001 15 16.0001C15.2652 16.0001 15.5196 15.8948 15.7071 15.7072C15.8947 15.5197 16 15.2653 16 15.0001C16 14.7349 15.8947 14.4805 15.7071 14.293C15.5196 14.1055 15.2652 14.0001 15 14.0001Z" fill="currentColor"/>
</svg>
