<svg viewBox="0 0 22 22" fill="none" xmlns="http://www.w3.org/2000/svg">
<path fill-rule="evenodd" clip-rule="evenodd" d="M3.47961 0.600098H3.39961C3.03321 0.600098 2.71801 0.600098 2.43961 0.665698C2.00863 0.768681 1.61457 0.988972 1.3011 1.30216C0.987627 1.61535 0.766981 2.00921 0.663609 2.4401C0.599609 2.7185 0.599609 3.0321 0.599609 3.4001V7.4001C0.599609 7.7665 0.599609 8.0817 0.665209 8.3601C0.768193 8.79108 0.988484 9.18514 1.30167 9.49861C1.61486 9.81208 2.00872 10.0327 2.43961 10.1361C2.71801 10.2001 3.03161 10.2001 3.39961 10.2001H7.39961C7.76601 10.2001 8.08121 10.2001 8.35961 10.1345C8.79059 10.0315 9.18465 9.81122 9.49812 9.49803C9.81159 9.18485 10.0322 8.79099 10.1356 8.3601C10.1996 8.0817 10.1996 7.7681 10.1996 7.4001V3.4001C10.1996 3.0337 10.1996 2.7185 10.134 2.4401C10.031 2.00912 9.81073 1.61506 9.49755 1.30159C9.18436 0.988115 8.7905 0.76747 8.35961 0.664098C8.08121 0.600098 7.76761 0.600098 7.39961 0.600098H7.31961H3.47961ZM2.81241 2.2225C2.88121 2.2065 2.98841 2.2001 3.47961 2.2001H7.31961C7.81241 2.2001 7.91801 2.2049 7.98681 2.2225C8.13054 2.25687 8.26194 2.33038 8.36643 2.43487C8.47093 2.53937 8.54444 2.67077 8.57881 2.8145C8.59481 2.8817 8.59961 2.9873 8.59961 3.4801V7.3201C8.59961 7.8129 8.59481 7.9185 8.57721 7.9873C8.54284 8.13103 8.46933 8.26242 8.36483 8.36692C8.26034 8.47142 8.12894 8.54493 7.98521 8.5793C7.91961 8.5937 7.81401 8.6001 7.31961 8.6001H3.47961C2.98681 8.6001 2.88121 8.5953 2.81241 8.5777C2.66868 8.54333 2.53728 8.46982 2.43279 8.36532C2.32829 8.26082 2.25478 8.12943 2.22041 7.9857C2.20601 7.9201 2.19961 7.8145 2.19961 7.3201V3.4801C2.19961 2.9873 2.20441 2.8817 2.22201 2.8129C2.25638 2.66917 2.32989 2.53777 2.43439 2.43327C2.53888 2.32878 2.67028 2.25527 2.81401 2.2209M14.6796 0.600098H14.5996C14.2332 0.600098 13.918 0.600098 13.6396 0.665698C13.2086 0.768681 12.8146 0.988972 12.5011 1.30216C12.1876 1.61535 11.967 2.00921 11.8636 2.4401C11.7996 2.7185 11.7996 3.0321 11.7996 3.4001V7.4001C11.7996 7.7665 11.7996 8.0817 11.8652 8.3601C11.9682 8.79108 12.1885 9.18514 12.5017 9.49861C12.8149 9.81208 13.2087 10.0327 13.6396 10.1361C13.918 10.2001 14.2316 10.2001 14.5996 10.2001H18.5996C18.966 10.2001 19.2812 10.2001 19.5596 10.1345C19.9906 10.0315 20.3846 9.81122 20.6981 9.49803C21.0116 9.18485 21.2322 8.79099 21.3356 8.3601C21.3996 8.0817 21.3996 7.7681 21.3996 7.4001V3.4001C21.3996 3.0337 21.3996 2.7185 21.334 2.4401C21.231 2.00912 21.0107 1.61506 20.6975 1.30159C20.3844 0.988115 19.9905 0.76747 19.5596 0.664098C19.2812 0.600098 18.9676 0.600098 18.5996 0.600098H18.5196H14.6796ZM14.0124 2.2225C14.0812 2.2065 14.1884 2.2001 14.6796 2.2001H18.5196C19.0124 2.2001 19.118 2.2049 19.1868 2.2225C19.3305 2.25687 19.4619 2.33038 19.5664 2.43487C19.6709 2.53937 19.7444 2.67077 19.7788 2.8145C19.7948 2.8817 19.7996 2.9873 19.7996 3.4801V7.3201C19.7996 7.8129 19.7932 7.9185 19.7772 7.9873C19.7428 8.13103 19.6693 8.26242 19.5648 8.36692C19.4603 8.47142 19.3289 8.54493 19.1852 8.5793C19.118 8.5953 19.0124 8.6001 18.5196 8.6001H14.6796C14.1868 8.6001 14.0812 8.5953 14.0124 8.5777C13.8687 8.54333 13.7373 8.46982 13.6328 8.36532C13.5283 8.26082 13.4548 8.12943 13.4204 7.9857C13.406 7.9201 13.3996 7.8145 13.3996 7.3201V3.4801C13.3996 2.9873 13.4044 2.8817 13.422 2.8129C13.4564 2.66917 13.5299 2.53777 13.6344 2.43327C13.7389 2.32878 13.8703 2.25527 14.014 2.2209M3.39961 11.8001H7.39961C7.76601 11.8001 8.08121 11.8001 8.35961 11.8657C8.79059 11.9687 9.18465 12.189 9.49812 12.5022C9.81159 12.8153 10.0322 13.2092 10.1356 13.6401C10.1996 13.9185 10.1996 14.2321 10.1996 14.6001V18.6001C10.1996 18.9665 10.1996 19.2817 10.134 19.5601C10.031 19.9911 9.81073 20.3851 9.49755 20.6986C9.18436 21.0121 8.7905 21.2327 8.35961 21.3361C8.08121 21.4001 7.76761 21.4001 7.39961 21.4001H3.39961C3.03321 21.4001 2.71801 21.4001 2.43961 21.3345C2.00863 21.2315 1.61457 21.0112 1.3011 20.698C0.987627 20.3848 0.766981 19.991 0.663609 19.5601C0.599609 19.2817 0.599609 18.9681 0.599609 18.6001V14.6001C0.599609 14.2337 0.599609 13.9185 0.665209 13.6401C0.768193 13.2091 0.988484 12.8151 1.30167 12.5016C1.61486 12.1881 2.00872 11.9675 2.43961 11.8641C2.71801 11.8001 3.03161 11.8001 3.39961 11.8001ZM3.47961 13.4001C2.98681 13.4001 2.88121 13.4049 2.81241 13.4225C2.66868 13.4569 2.53728 13.5304 2.43279 13.6349C2.32829 13.7394 2.25478 13.8708 2.22041 14.0145C2.20601 14.0801 2.19961 14.1857 2.19961 14.6801V18.5201C2.19961 19.0129 2.20441 19.1185 2.22201 19.1873C2.25638 19.331 2.32989 19.4624 2.43439 19.5669C2.53888 19.6714 2.67028 19.7449 2.81401 19.7793C2.88121 19.7953 2.98681 19.8001 3.47961 19.8001H7.31961C7.81241 19.8001 7.91801 19.7937 7.98681 19.7777C8.13054 19.7433 8.26194 19.6698 8.36643 19.5653C8.47093 19.4608 8.54444 19.3294 8.57881 19.1857C8.59481 19.1185 8.59961 19.0129 8.59961 18.5201V14.6801C8.59961 14.1873 8.59481 14.0817 8.57721 14.0129C8.54284 13.8692 8.46933 13.7378 8.36483 13.6333C8.26034 13.5288 8.12894 13.4553 7.98521 13.4209C7.91961 13.4065 7.81401 13.4001 7.31961 13.4001H3.47961ZM14.6796 11.8001H14.5996C14.2332 11.8001 13.918 11.8001 13.6396 11.8657C13.2086 11.9687 12.8146 12.189 12.5011 12.5022C12.1876 12.8153 11.967 13.2092 11.8636 13.6401C11.7996 13.9185 11.7996 14.2321 11.7996 14.6001V18.6001C11.7996 18.9665 11.7996 19.2817 11.8652 19.5601C11.9682 19.9911 12.1885 20.3851 12.5017 20.6986C12.8149 21.0121 13.2087 21.2327 13.6396 21.3361C13.918 21.4017 14.2332 21.4017 14.5996 21.4017H18.5996C18.966 21.4017 19.2812 21.4017 19.5596 21.3361C19.9903 21.2329 20.384 21.0124 20.6972 20.6993C21.0104 20.3861 21.2308 19.9924 21.334 19.5617C21.3996 19.2833 21.3996 18.9681 21.3996 18.6017V14.6001C21.3996 14.2337 21.3996 13.9185 21.334 13.6401C21.231 13.2091 21.0107 12.8151 20.6975 12.5016C20.3844 12.1881 19.9905 11.9675 19.5596 11.8641C19.2812 11.8001 18.9676 11.8001 18.5996 11.8001H18.5196H14.6796ZM14.0124 13.4225C14.0812 13.4065 14.1884 13.4001 14.6796 13.4001H18.5196C19.0124 13.4001 19.118 13.4049 19.1868 13.4225C19.3305 13.4569 19.4619 13.5304 19.5664 13.6349C19.6709 13.7394 19.7444 13.8708 19.7788 14.0145C19.7948 14.0817 19.7996 14.1873 19.7996 14.6801V18.5201C19.7996 19.0129 19.7932 19.1185 19.7772 19.1873C19.7428 19.331 19.6693 19.4624 19.5648 19.5669C19.4603 19.6714 19.3289 19.7449 19.1852 19.7793C19.118 19.7953 19.0124 19.8001 18.5196 19.8001H14.6796C14.1868 19.8001 14.0812 19.7937 14.0124 19.7777C13.8687 19.7433 13.7373 19.6698 13.6328 19.5653C13.5283 19.4608 13.4548 19.3294 13.4204 19.1857C13.406 19.1201 13.3996 19.0145 13.3996 18.5201V14.6801C13.3996 14.1873 13.4044 14.0817 13.422 14.0129C13.4564 13.8692 13.5299 13.7378 13.6344 13.6333C13.7389 13.5288 13.8703 13.4553 14.014 13.4209" fill="currentColor"/>
</svg>
