<svg xmlns="http://www.w3.org/2000/svg" viewBox="0 0 12 10" fill="none">
    <path
        d="M11.5684 4.76367C11.5684 4.93945 11.4922 5.10938 11.3574 5.23828L7.49023 9.09961C7.34961 9.23438 7.19727 9.29883 7.0332 9.29883C6.66992 9.29883 6.40625 9.03516 6.40625 8.68359C6.40625 8.50195 6.47656 8.34375 6.59375 8.23242L7.90625 6.90234L9.63477 5.32031L8.26953 5.40234H1.14453C0.757812 5.40234 0.494141 5.13867 0.494141 4.76367C0.494141 4.38281 0.757812 4.125 1.14453 4.125H8.26953L9.62891 4.20703L7.90625 2.625L6.59375 1.29492C6.47656 1.17773 6.40625 1.01953 6.40625 0.837891C6.40625 0.486328 6.66992 0.228516 7.0332 0.228516C7.19727 0.228516 7.35547 0.287109 7.50195 0.433594L11.3574 4.28906C11.4922 4.41211 11.5684 4.58789 11.5684 4.76367Z"
        fill="currentColor"
    />
</svg>
