<svg xmlns="http://www.w3.org/2000/svg" viewBox="0 0 13 13" fill="none">
    <path d="M0.507812 12.3594C0.234375 12.0938 0.242188 11.6406 0.507812 11.375L5.50781 6.36719L0.507812 1.36719C0.242188 1.10156 0.242188 0.65625 0.507812 0.382812C0.773438 0.101562 1.23438 0.109375 1.5 0.382812L6.5 5.38281L11.5 0.382812C11.7656 0.109375 12.2188 0.109375 12.4922 0.382812C12.7656 0.648438 12.7578 1.10156 12.4922 1.36719L7.49219 6.36719L12.4922 11.375C12.7578 11.6406 12.7578 12.0859 12.4922 12.3594C12.2266 12.6328 11.7656 12.625 11.5 12.3594L6.5 7.35938L1.5 12.3594C1.23438 12.625 0.78125 12.625 0.507812 12.3594Z"
          fill="currentColor"/>
</svg>