<svg xmlns="http://www.w3.org/2000/svg" viewBox="0 0 24 24" fill="none">
    <path d="M12 3.75C6.83062 3.75 2.625 7.1063 2.625 11.2324C2.625 13.8098 4.25489 16.1644 6.93164 17.532C6.16777 18.8197 5.4388 19.8568 5.43018 19.8691C5.2603 20.1106 5.24793 20.4293 5.39868 20.6836C5.53518 20.9127 5.78145 21.0513 6.04395 21.0513C6.07245 21.0513 6.10114 21.0495 6.12964 21.0461C6.22751 21.0349 8.49322 20.7547 11.2566 18.6907C11.5086 18.7068 11.7577 18.7148 12 18.7148C17.1694 18.7148 21.375 15.3585 21.375 11.2324C21.375 7.1063 17.1694 3.75 12 3.75ZM12 5.25C16.3421 5.25 19.875 7.93355 19.875 11.2324C19.875 14.5313 16.3421 17.2148 12 17.2148C11.7082 17.2148 11.4034 17.2019 11.094 17.1746C10.9065 17.1573 10.7181 17.2129 10.5688 17.3291C9.53835 18.1282 8.58049 18.6462 7.80762 18.9792C8.07574 18.5472 8.36537 18.0627 8.64624 17.5591C8.75124 17.372 8.77058 17.1485 8.69971 16.946C8.62883 16.7435 8.47474 16.5814 8.27637 16.5C5.71549 15.4489 4.125 13.4299 4.125 11.2324C4.125 7.93355 7.65787 5.25 12 5.25ZM12 7.5C11.3786 7.5 10.875 8.00362 10.875 8.625C10.875 9.24637 11.3786 9.75 12 9.75C12.6214 9.75 13.125 9.24637 13.125 8.625C13.125 8.00362 12.6214 7.5 12 7.5ZM12 10.875C11.5856 10.875 11.25 11.211 11.25 11.625V14.625C11.25 15.039 11.5856 15.375 12 15.375C12.4144 15.375 12.75 15.039 12.75 14.625V11.625C12.75 11.211 12.4144 10.875 12 10.875Z"
          fill="currentColor"/>
</svg>