<svg xmlns="http://www.w3.org/2000/svg" width="168" height="169" viewBox="0 0 168 169" fill="none">
    <path fill-rule="evenodd" clip-rule="evenodd"
          d="M111.43 5.5939L111.032 6.58887C102.507 3.68755 93.4945 2.0832 83.9996 2.0832C74.5934 2.0832 65.4929 3.60711 57.0809 6.58863L56.6296 5.57316C65.233 2.58143 74.5005 0.976562 83.9996 0.976562C93.6029 0.976562 102.818 2.58861 111.43 5.5939ZM120.055 10.3569C136.626 18.4679 150.074 31.9158 158.185 48.4869L159.168 48.0938C150.946 31.2085 137.195 17.6013 120.446 9.37972L120.055 10.3569ZM8.83701 48.0961C17.0601 31.3583 30.7379 17.6825 47.4772 9.46199L47.8466 10.3649C31.3624 18.4785 17.8462 31.996 9.81118 48.4857L8.83701 48.0961ZM5.04189 57.1777L6.04545 57.6238C3.06433 66.0266 1.54023 75.0526 1.54023 84.5426C1.54023 93.9492 3.14285 103.117 6.04761 111.518L5.05254 111.938C2.11552 103.316 0.433594 94.039 0.433594 84.5426C0.433594 74.9757 2.1112 65.783 5.04189 57.1777ZM162.959 111.943L161.952 111.518C164.856 103.117 166.459 93.9492 166.459 84.5426C166.459 75.0556 164.936 66.037 162.035 57.6439L162.964 57.243C165.96 65.8351 167.566 74.9571 167.566 84.5426C167.566 94.0529 165.957 103.331 162.959 111.943ZM158.177 120.696C150.066 137.18 136.621 150.62 120.055 158.728L120.446 159.705C137.193 151.48 150.941 137.801 159.086 121.067L158.177 120.696ZM47.5531 159.705C30.8153 151.482 17.1395 137.804 8.91903 121.065L9.82189 120.696C17.9335 137.18 31.3779 150.62 47.9439 158.728L47.5531 159.705ZM56.6349 163.5L57.0809 162.497C65.4929 165.478 74.5934 167.002 83.9996 167.002C93.3304 167.002 102.428 165.476 110.837 162.569L111.274 163.529C102.7 166.579 93.5881 168.109 83.9996 168.109C74.5144 168.109 65.2486 166.431 56.6349 163.5Z"
          fill="currentColor"/>
</svg>