<svg xmlns="http://www.w3.org/2000/svg" viewBox="0 0 312 375" fill="none">
    <g clip-path="url(#clip0_86_2)">
        <path
            d="M196.418 140.079L204.429 107.119C227.814 105.196 278.591 84.871 294.612 18.9516C314.817 95.5731 261.44 188.726 232.226 225.725L213.59 202.557L196.418 140.079Z"
            fill="#EEA941"
        />
        <path
            d="M206.529 207.094L228.667 231.297C218.597 254.408 209.525 312.732 253.802 361.138C183.087 341.633 135.756 244.126 120.929 197.81L148.522 191.848L206.529 207.094Z"
            fill="#3973B6"
        />
        <path
            d="M150.165 184.759L120.016 193.515C106.701 172.327 64.9962 134.329 4.69848 151.841C55.2076 94.725 155.916 99.0795 199.956 108.396L191 137.527L150.165 184.759Z"
            fill="#84BD56"
        />
    </g>
    <defs>
        <clipPath id="clip0_86_2">
            <rect width="312" height="375" fill="white" />
        </clipPath>
    </defs>
</svg>
