<svg xmlns="http://www.w3.org/2000/svg" viewBox="0 0 303 299" fill="none">
    <circle cx="171.5" cy="153.5" r="13.5" fill="currentColor" />
    <path d="M237 0C231 55 200.5 87 175 93V118L203.5 167L225 180C259.5 116.5 257.5 41.5 237 0Z" fill="currentColor" />
    <path
        d="M7.39856 172.815C58.03 150.511 100.993 160.925 118.939 180.008L140.59 167.508L168.775 118.327L169.283 93.207C97.0405 95.0792 33.0886 134.311 7.39856 172.815Z"
        fill="currentColor"
    />
    <path
        d="M271.283 285.694C226.652 252.997 214.189 210.584 221.743 185.5L200.092 173L143.407 173.182L121.399 185.301C159.141 246.929 225.093 282.697 271.283 285.694Z"
        fill="currentColor"
    />
</svg>
