<svg xmlns="http://www.w3.org/2000/svg" width="507" height="591" viewBox="0 0 507 591" fill="none">
    <path
        d="M99.7122 61.3812C74.9583 49.1786 51.3187 75.5947 39.5868 94.6083C38.4655 96.4255 35.7094 95.6245 36.021 93.5121C40.0913 65.9142 59.7898 21.4066 108.712 40.8811C156.631 59.9564 143.946 128.379 126.645 153.511C125.539 155.117 123.326 154.11 123.546 152.172C126.609 125.261 125.921 74.3011 99.7122 61.3812Z"
        fill="currentColor"
        stroke="currentColor"
    />
    <path
        d="M310.066 70.7713C317.042 26.1788 287.654 12.5002 268.095 10.5973C266.144 10.4074 265.457 8.00711 267.228 7.16735C283.124 -0.368294 316.248 -5.27044 328.712 18.8824C344.063 48.6299 324.178 71.6882 311.811 72.8991C310.671 73.0107 309.889 71.903 310.066 70.7713Z"
        fill="currentColor"
        stroke="currentColor"
    />
    <path
        d="M41.7121 326.882C25.2506 288.248 21.5096 261.252 21.721 248.266C21.7521 246.353 24.0168 245.951 24.8774 247.66C38.5316 274.774 61.9664 322.399 64.2122 331.382C67.2122 343.382 82.2122 384.375 82.2122 401.382C82.2122 422.197 46.5956 415.831 42.0569 394.08C41.8142 392.916 42.7538 391.894 43.9208 391.671C51.9259 390.136 64.0164 379.229 41.7121 326.882Z"
        fill="currentColor"
        stroke="currentColor"
    />
    <path
        d="M262.041 169.358C239.054 159.743 223.39 192.479 225.938 208.804C226.165 210.259 227.899 210.665 228.935 209.619C235.665 202.819 246.786 192.024 250.712 189.882C255.89 187.058 262.397 178.03 263.142 171.141C263.225 170.374 262.752 169.656 262.041 169.358Z"
        fill="currentColor"
        stroke="currentColor"
    />
    <path
        d="M390.212 143.383C389.227 150.277 351.712 138.382 352.712 132.883C353.58 128.111 355.012 123.613 362.212 124.883C389.812 128.483 390.712 139.883 390.212 143.383Z"
        fill="currentColor"
        stroke="currentColor"
    />
    <path
        d="M261.712 265.882C260.723 255.101 268.578 242.352 279.212 244.382C287.777 246.017 291.643 254.163 291.712 262.882C291.792 273.007 285.267 284.077 275.212 282.882C266.794 281.881 262.486 274.324 261.712 265.882Z"
        fill="currentColor"
        stroke="currentColor"
    />
    <path
        fill-rule="evenodd"
        clip-rule="evenodd"
        d="M327.914 178.898C323.36 184.943 317.075 200.829 320.712 227.382C325.444 261.922 346.742 248.554 349.863 246.594C350.04 246.483 350.158 246.409 350.212 246.382C360.212 241.382 382.505 244.261 383.212 246.382C383.712 247.882 383.012 249.382 378.212 255.382C372.259 262.823 364.829 290.937 424.781 300.655C425.617 300.791 426.324 301.436 426.432 302.277C428.435 317.918 417.829 350.969 359.378 368.831C359.27 368.864 359.153 368.89 359.041 368.904C319.214 373.899 301.297 348.145 296.971 333.787C296.797 333.211 296.916 332.6 297.264 332.108C300.332 327.766 305.095 320.382 303.212 320.382C302.785 320.382 302.168 320.09 301.319 319.688C297.199 317.738 287.611 313.201 267.712 326.882C243.712 343.382 242.212 362.382 244.712 367.382C245.828 369.613 250.529 365.372 256.148 360.302C263.12 354.011 271.506 346.444 276.212 348.382C280.456 350.129 291.305 364.216 302.6 378.88C313.928 393.587 325.703 408.876 331.712 412.882C343.712 420.882 361.712 431.882 379.212 423.882C396.712 415.882 406.712 396.382 406.712 387.882C406.712 379.382 406.712 370.882 415.212 362.382C421.295 356.299 453.212 308.382 457.712 283.882C462.212 259.382 462.212 246.382 451.212 234.882C442.12 225.377 409.8 225.436 396.603 225.46C393.833 225.465 391.906 225.469 391.212 225.382C390.37 225.277 389.528 224.884 388.715 224.263C388.774 223.539 388.802 222.816 388.796 222.097C388.727 213.378 384.861 205.232 376.296 203.597C365.662 201.567 357.807 214.316 358.796 225.097C358.85 225.688 358.922 226.274 359.011 226.855C357.878 227.211 356.466 227.382 354.712 227.382C354.138 227.382 353.562 227.388 352.985 227.394C344.525 227.484 335.989 227.574 332.712 208.382C330.873 197.61 330.691 190.289 330.569 185.404C330.498 182.556 330.448 180.536 330.101 179.142C329.835 178.07 328.578 178.015 327.914 178.898Z"
        fill="currentColor"
    />
    <path
        d="M320.712 227.382L320.217 227.45L320.217 227.45L320.712 227.382ZM327.914 178.898L327.514 178.597L327.514 178.597L327.914 178.898ZM349.863 246.594L350.129 247.018L350.129 247.018L349.863 246.594ZM350.212 246.382L350.436 246.829L350.436 246.829L350.212 246.382ZM383.212 246.382L382.738 246.54L382.738 246.54L383.212 246.382ZM378.212 255.382L377.822 255.07L377.822 255.07L378.212 255.382ZM424.781 300.655L424.861 300.162L424.861 300.162L424.781 300.655ZM426.432 302.277L425.936 302.34L425.936 302.34L426.432 302.277ZM359.378 368.831L359.524 369.31L359.524 369.31L359.378 368.831ZM359.041 368.904L358.979 368.408L358.979 368.408L359.041 368.904ZM296.971 333.787L297.45 333.643L297.45 333.643L296.971 333.787ZM297.264 332.108L297.672 332.397L297.672 332.397L297.264 332.108ZM301.319 319.688L301.105 320.14L301.105 320.14L301.319 319.688ZM267.712 326.882L267.429 326.47L267.429 326.47L267.712 326.882ZM244.712 367.382L245.159 367.158L245.159 367.158L244.712 367.382ZM256.148 360.302L256.483 360.673L256.483 360.673L256.148 360.302ZM276.212 348.382L276.403 347.92L276.403 347.92L276.212 348.382ZM302.6 378.88L302.996 378.575L302.996 378.575L302.6 378.88ZM331.712 412.882L331.99 412.466L331.99 412.466L331.712 412.882ZM379.212 423.882L379.004 423.427L379.004 423.427L379.212 423.882ZM457.712 283.882L458.204 283.972L458.204 283.972L457.712 283.882ZM451.212 234.882L451.573 234.536L451.573 234.536L451.212 234.882ZM396.603 225.46L396.604 225.96L396.604 225.96L396.603 225.46ZM391.212 225.382L391.15 225.878L391.15 225.878L391.212 225.382ZM388.715 224.263L388.216 224.222L388.194 224.495L388.411 224.661L388.715 224.263ZM388.796 222.097L388.296 222.101L388.296 222.101L388.796 222.097ZM376.296 203.597L376.39 203.106L376.39 203.106L376.296 203.597ZM358.796 225.097L358.298 225.143L358.298 225.143L358.796 225.097ZM359.011 226.855L359.161 227.332L359.57 227.203L359.505 226.779L359.011 226.855ZM352.985 227.394L352.98 226.894L352.98 226.894L352.985 227.394ZM332.712 208.382L332.219 208.466L332.219 208.466L332.712 208.382ZM330.569 185.404L331.069 185.392L331.069 185.392L330.569 185.404ZM330.101 179.142L329.616 179.263L329.616 179.263L330.101 179.142ZM321.208 227.314C317.583 200.856 323.859 185.113 328.313 179.198L327.514 178.597C322.862 184.774 316.566 200.803 320.217 227.45L321.208 227.314ZM349.597 246.171C348.822 246.657 346.938 247.84 344.473 248.811C342.004 249.784 338.989 250.531 335.949 250.179C332.929 249.829 329.85 248.392 327.222 244.929C324.583 241.45 322.384 235.903 321.208 227.314L320.217 227.45C321.406 236.131 323.644 241.866 326.426 245.533C329.22 249.217 332.548 250.791 335.834 251.172C339.1 251.55 342.29 250.746 344.84 249.741C347.394 248.735 349.343 247.511 350.129 247.018L349.597 246.171ZM349.989 245.935C349.907 245.976 349.758 246.07 349.597 246.171L350.129 247.018C350.218 246.962 350.289 246.917 350.345 246.883C350.373 246.866 350.395 246.853 350.412 246.843C350.43 246.832 350.436 246.829 350.436 246.829L349.989 245.935ZM383.686 246.224C383.588 245.929 383.342 245.715 383.112 245.561C382.866 245.397 382.548 245.245 382.183 245.102C381.45 244.816 380.452 244.542 379.266 244.295C376.89 243.798 373.699 243.393 370.223 243.212C366.746 243.031 362.972 243.074 359.431 243.478C355.897 243.881 352.563 244.648 349.989 245.935L350.436 246.829C352.861 245.616 356.064 244.868 359.544 244.471C363.018 244.075 366.736 244.032 370.171 244.211C373.607 244.39 376.746 244.79 379.061 245.273C380.222 245.516 381.159 245.776 381.819 246.034C382.151 246.163 382.395 246.285 382.557 246.393C382.737 246.513 382.748 246.57 382.738 246.54L383.686 246.224ZM378.603 255.694C380.999 252.699 382.402 250.791 383.139 249.433C383.51 248.75 383.728 248.178 383.811 247.655C383.895 247.121 383.833 246.664 383.686 246.224L382.738 246.54C382.841 246.85 382.879 247.143 382.823 247.499C382.765 247.867 382.602 248.327 382.26 248.956C381.572 250.223 380.225 252.065 377.822 255.07L378.603 255.694ZM424.861 300.162C394.935 295.311 382.004 285.893 377.223 276.93C372.447 267.974 375.718 259.299 378.603 255.694L377.822 255.07C374.753 258.906 371.333 268.009 376.341 277.4C381.345 286.783 394.675 296.282 424.701 301.149L424.861 300.162ZM426.928 302.213C426.788 301.123 425.885 300.328 424.861 300.162L424.701 301.149C425.349 301.254 425.86 301.749 425.936 302.34L426.928 302.213ZM359.524 369.31C418.13 351.4 428.971 318.169 426.928 302.213L425.936 302.34C427.899 317.668 417.528 350.538 359.231 368.353L359.524 369.31ZM359.103 369.4C359.244 369.382 359.389 369.351 359.524 369.31L359.231 368.353C359.151 368.378 359.062 368.397 358.979 368.408L359.103 369.4ZM296.492 333.931C298.682 341.199 304.298 351.321 314.39 359.001C324.496 366.691 339.064 371.913 359.103 369.4L358.979 368.408C339.191 370.89 324.887 365.732 314.996 358.205C305.091 350.667 299.586 340.733 297.45 333.643L296.492 333.931ZM296.856 331.82C296.427 332.427 296.271 333.196 296.492 333.931L297.45 333.643C297.324 333.226 297.406 332.773 297.672 332.397L296.856 331.82ZM303.212 320.882C303.248 320.882 303.218 320.89 303.174 320.854C303.129 320.818 303.128 320.784 303.133 320.81C303.15 320.89 303.141 321.092 303.03 321.459C302.817 322.163 302.326 323.182 301.658 324.372C300.332 326.739 298.386 329.654 296.856 331.82L297.672 332.397C299.21 330.22 301.179 327.272 302.531 324.861C303.202 323.663 303.74 322.564 303.987 321.748C304.106 321.355 304.184 320.946 304.112 320.606C304.074 320.421 303.985 320.224 303.805 320.078C303.625 319.932 303.411 319.882 303.212 319.882V320.882ZM301.105 320.14C301.524 320.339 301.908 320.52 302.241 320.651C302.566 320.779 302.9 320.882 303.212 320.882V319.882C303.097 319.882 302.909 319.839 302.607 319.72C302.312 319.605 301.963 319.44 301.533 319.236L301.105 320.14ZM267.995 327.294C277.895 320.488 285.18 318.248 290.463 317.923C295.734 317.598 299.068 319.176 301.105 320.14L301.533 319.236C299.45 318.25 295.929 316.585 290.402 316.925C284.886 317.264 277.429 319.595 267.429 326.47L267.995 327.294ZM245.159 367.158C244.589 366.018 244.214 363.992 244.375 361.295C244.536 358.612 245.225 355.306 246.737 351.635C249.759 344.296 256.067 335.495 267.995 327.294L267.429 326.47C255.357 334.769 248.915 343.718 245.812 351.254C244.262 355.02 243.545 358.434 243.377 361.235C243.21 364.022 243.585 366.246 244.265 367.606L245.159 367.158ZM255.813 359.93C252.993 362.474 250.44 364.777 248.454 366.171C247.453 366.873 246.651 367.304 246.064 367.444C245.776 367.512 245.585 367.499 245.461 367.455C245.352 367.417 245.249 367.338 245.159 367.158L244.265 367.606C244.454 367.984 244.742 368.261 245.126 368.397C245.495 368.529 245.898 368.511 246.295 368.416C247.079 368.23 248.012 367.702 249.028 366.989C251.076 365.552 253.683 363.199 256.483 360.673L255.813 359.93ZM276.403 347.92C275.067 347.37 273.523 347.515 271.909 348.069C270.292 348.625 268.542 349.614 266.747 350.843C263.158 353.302 259.292 356.791 255.813 359.93L256.483 360.673C259.976 357.521 263.789 354.082 267.312 351.668C269.073 350.462 270.738 349.529 272.234 349.015C273.735 348.499 275.004 348.425 276.022 348.844L276.403 347.92ZM302.996 378.575C297.351 371.245 291.808 364.049 287.146 358.467C284.815 355.676 282.697 353.28 280.891 351.469C279.105 349.678 277.568 348.399 276.403 347.92L276.022 348.844C276.979 349.238 278.389 350.376 280.183 352.175C281.958 353.956 284.055 356.326 286.378 359.108C291.025 364.672 296.555 371.85 302.204 379.185L302.996 378.575ZM331.99 412.466C329.057 410.511 324.656 405.748 319.536 399.575C314.432 393.422 308.662 385.931 302.996 378.575L302.204 379.185C307.866 386.537 313.648 394.044 318.766 400.213C323.867 406.363 328.359 411.247 331.435 413.298L331.99 412.466ZM379.004 423.427C370.406 427.358 361.67 426.632 353.559 423.908C345.44 421.181 337.988 416.465 331.99 412.466L331.435 413.298C337.437 417.299 344.985 422.083 353.24 424.856C361.505 427.632 370.519 428.406 379.42 424.337L379.004 423.427ZM406.212 387.882C406.212 391.989 403.772 398.89 399.11 405.79C394.46 412.672 387.65 419.475 379.004 423.427L379.42 424.337C388.274 420.289 395.214 413.342 399.939 406.349C404.652 399.374 407.212 392.275 407.212 387.882H406.212ZM414.859 362.028C406.203 370.684 406.212 379.375 406.212 387.882H407.212C407.212 379.389 407.221 371.08 415.566 362.736L414.859 362.028ZM457.22 283.792C454.988 295.944 445.929 313.979 436.625 329.785C431.979 337.676 427.285 344.992 423.373 350.713C419.451 356.45 416.341 360.546 414.859 362.028L415.566 362.736C417.125 361.176 420.285 357.002 424.199 351.278C428.123 345.538 432.83 338.203 437.487 330.292C446.786 314.494 455.936 296.32 458.204 283.972L457.22 283.792ZM450.851 235.228C456.272 240.896 458.976 246.917 459.777 254.559C460.582 262.231 459.47 271.544 457.22 283.792L458.204 283.972C460.454 271.72 461.593 262.283 460.772 254.455C459.948 246.597 457.152 240.368 451.573 234.536L450.851 235.228ZM396.604 225.96C403.205 225.948 414.558 225.928 425.393 227.095C430.811 227.678 436.083 228.557 440.558 229.876C445.046 231.199 448.669 232.947 450.851 235.228L451.573 234.536C449.209 232.065 445.383 230.255 440.841 228.917C436.286 227.574 430.949 226.687 425.5 226.1C414.603 224.927 403.198 224.948 396.602 224.96L396.604 225.96ZM391.15 225.878C391.885 225.97 393.861 225.965 396.604 225.96L396.602 224.96C393.806 224.965 391.927 224.967 391.274 224.886L391.15 225.878ZM388.411 224.661C389.274 225.318 390.197 225.759 391.15 225.878L391.274 224.886C390.544 224.795 389.783 224.449 389.018 223.866L388.411 224.661ZM388.296 222.101C388.302 222.804 388.275 223.513 388.216 224.222L389.213 224.304C389.274 223.566 389.302 222.827 389.296 222.093L388.296 222.101ZM376.202 204.088C384.422 205.657 388.228 213.485 388.296 222.101L389.296 222.093C389.226 213.27 385.3 204.807 376.39 203.106L376.202 204.088ZM359.294 225.051C358.811 219.786 360.491 214.025 363.589 209.84C366.685 205.659 371.132 203.12 376.202 204.088L376.39 203.106C370.826 202.044 366.029 204.864 362.786 209.245C359.545 213.622 357.792 219.627 358.298 225.143L359.294 225.051ZM359.505 226.779C359.418 226.209 359.347 225.632 359.294 225.051L358.298 225.143C358.353 225.743 358.426 226.34 358.517 226.93L359.505 226.779ZM354.712 227.882C356.494 227.882 357.961 227.709 359.161 227.332L358.861 226.378C357.794 226.713 356.438 226.882 354.712 226.882V227.882ZM352.991 227.894C353.568 227.888 354.141 227.882 354.712 227.882V226.882C354.135 226.882 353.556 226.888 352.98 226.894L352.991 227.894ZM332.219 208.466C333.867 218.118 336.859 223.06 340.63 225.537C344.38 227.999 348.79 227.939 352.991 227.894L352.98 226.894C348.72 226.939 344.632 226.969 341.179 224.701C337.748 222.447 334.834 217.838 333.205 208.298L332.219 208.466ZM330.069 185.417C330.191 190.31 330.374 197.659 332.219 208.466L333.205 208.298C331.372 197.561 331.19 190.268 331.069 185.392L330.069 185.417ZM329.616 179.263C329.946 180.589 329.997 182.541 330.069 185.417L331.069 185.392C330.998 182.571 330.949 180.482 330.587 179.022L329.616 179.263ZM328.313 179.198C328.553 178.88 328.872 178.764 329.113 178.785C329.33 178.804 329.534 178.933 329.616 179.263L330.587 179.022C330.402 178.28 329.845 177.845 329.2 177.789C328.58 177.735 327.939 178.033 327.514 178.597L328.313 179.198Z"
        fill="currentColor"
    />
    <path
        d="M19.7118 469.882C-13.5031 422.562 4.34816 385.593 20.8923 370.279C22.3179 368.96 24.3883 370.433 23.8852 372.309C20.6959 384.202 17.9984 403.834 27.7119 413.882C73.2119 453.382 119.712 428.882 229.712 498.382C339.712 567.882 395.712 553.382 415.712 539.882C435.712 526.382 453.212 510.882 460.712 510.882C468.212 510.882 485.712 529.882 488.712 534.882C491.712 539.882 488.712 545.882 485.712 545.882C460.712 545.882 451.712 553.882 424.212 566.382C407.712 573.882 400.712 585.382 349.212 589.382C310.522 592.387 256.879 562.715 234.712 545.882C190.545 510.382 93.3447 448.221 58.7119 484.382C24.7121 519.882 22.187 521.045 15.2119 519.882C12.7121 519.465 3.71192 514.382 9.71192 499.882C14.5119 488.282 23.2214 474.882 19.7118 469.882Z"
        fill="currentColor"
        stroke="currentColor"
    />
    <path
        d="M398.712 517.882C369.366 530.969 262.573 473.866 208.298 439.012C206.627 437.939 207.332 436.107 209.259 436.584C231.448 442.076 296.672 464.805 314.212 471.382C334.212 478.882 362.212 490.882 395.212 477.882C428.212 464.882 427.992 444.522 435.712 448.382C447.712 454.382 435.712 501.382 398.712 517.882Z"
        fill="currentColor"
        stroke="currentColor"
    />
    <path
        d="M283.712 92.3832C244.902 72.8177 215.762 68.0662 198.405 67.1739C196.025 67.0516 195.886 65.1692 198.267 65.0729C244.347 63.2093 287.746 92.3832 319.712 92.3832C355.992 92.3832 397.212 102.882 404.712 108.882C412.212 114.882 421.212 122.883 419.712 157.883C418.221 192.668 421.175 188.931 440.354 200.664C440.585 200.805 440.859 200.905 441.127 200.946C501.242 210.066 507.709 249.964 506.212 285.383C504.712 320.883 483.212 361.883 475.212 374.383C467.212 386.883 442.712 416.383 424.712 429.383C406.712 442.383 410.712 436.883 415.712 429.383C496.712 321.383 487.712 293.382 483.212 262.383C479.179 234.603 445.212 221.883 428.712 214.883C412.212 207.883 392.712 211.383 397.712 176.883C402.653 142.792 397.829 145.806 397.714 134.786C397.712 134.526 397.657 134.248 397.557 134.008C382.936 99.0525 343.998 122.775 283.712 92.3832Z"
        fill="currentColor"
        stroke="currentColor"
    />
</svg>
