<svg xmlns="http://www.w3.org/2000/svg" viewBox="0 0 136 126" fill="none">
    <g clip-path="url(#clip0_448_3015)">
        <path d="M112.694 117.98L112.69 117.984C110.405 120.357 107.299 121.584 103.254 121.584H76.5449C72.5002 121.584 69.3552 120.357 67.0026 117.975C64.6798 115.623 63.4824 112.49 63.4824 108.473V19.1172C63.4824 15.1016 64.679 11.9503 67.0048 9.56366C69.3572 7.18276 72.5015 5.95703 76.5449 5.95703H103.254C107.299 5.95703 110.405 7.18355 112.69 9.55675L112.69 9.55681L112.699 9.56587C115.021 11.9185 116.219 15.0512 116.219 19.0684V108.424C116.219 112.441 115.021 115.593 112.694 117.98ZM104.475 25.3906H105.475V24.3906V19.459V18.459H104.475H87.6777C86.7259 18.459 85.8865 18.8106 85.2128 19.4843L85.2006 19.4965L85.1889 19.5091C84.5559 20.1873 84.2363 21.0189 84.2363 21.9492C84.2363 22.8983 84.5479 23.7492 85.2128 24.4141L85.225 24.4263L85.2376 24.4381C85.9252 25.0798 86.7772 25.3906 87.7266 25.3906H104.475ZM104.475 33.6914H105.475V32.6914V27.8086V26.8086H104.475H93.8301C92.8767 26.8086 92.0399 27.1625 91.39 27.8587C90.757 28.5369 90.4375 29.3685 90.4375 30.2988C90.4375 31.2479 90.7491 32.0988 91.414 32.7637L91.4392 32.789L91.4662 32.8123C92.1474 33.4027 92.9699 33.6914 93.8789 33.6914H104.475ZM104.475 42.0898H105.475V41.0898V36.1582V35.1582H104.475H93.8301C92.8767 35.1582 92.0399 35.5121 91.39 36.2083C90.757 36.8865 90.4375 37.7181 90.4375 38.6484C90.4375 39.5975 90.7491 40.4484 91.414 41.1134L91.4262 41.1255L91.4388 41.1373C92.117 41.7703 92.9486 42.0898 93.8789 42.0898H104.475ZM104.475 50.4395H105.475V49.4395V44.5078V43.5078H104.475H93.8301C92.8767 43.5078 92.0399 43.8617 91.39 44.5579C90.7483 45.2455 90.4375 46.0975 90.4375 47.0469C90.4375 47.9959 90.7491 48.8469 91.414 49.5118L91.4392 49.537L91.4662 49.5604C92.1474 50.1508 92.9699 50.4395 93.8789 50.4395H104.475ZM104.475 58.7402H105.475V57.7402V52.8574V51.8574H104.475H93.8301C92.8594 51.8574 92.0207 52.2411 91.3792 52.968C90.7534 53.6441 90.4375 54.4715 90.4375 55.3965C90.4375 56.3445 90.7496 57.1966 91.4406 57.8383L91.4532 57.8499L91.4662 57.8612C92.1474 58.4516 92.9699 58.7402 93.8789 58.7402H104.475ZM104.475 67.0898H105.475V66.0898V61.207V60.207H104.475H87.6777C86.7259 60.207 85.8865 60.5587 85.2128 61.2323L85.2006 61.2445L85.1889 61.2571C84.5559 61.9354 84.2363 62.767 84.2363 63.6973C84.2363 64.6463 84.5479 65.4973 85.2128 66.1622L85.238 66.1874L85.265 66.2108C85.9552 66.8089 86.7978 67.0898 87.7266 67.0898H104.475ZM104.475 75.4883H105.475V74.4883V69.5078V68.5078H104.475H93.8301C92.854 68.5078 92.0114 68.8958 91.3685 69.6306C90.7642 70.3212 90.4375 71.1375 90.4375 72.0469C90.4375 72.9959 90.7491 73.8469 91.414 74.5118L91.4262 74.524L91.4388 74.5357C92.117 75.1687 92.9486 75.4883 93.8789 75.4883H104.475ZM104.475 83.8379H105.475V82.8379V77.9551V76.9551H104.475H93.8301C92.8824 76.9551 92.0499 77.3047 91.4017 77.9927C90.7452 78.6558 90.4375 79.5021 90.4375 80.4453C90.4375 81.3944 90.7491 82.2453 91.414 82.9102L91.4392 82.9355L91.4662 82.9588C92.1474 83.5492 92.9699 83.8379 93.8789 83.8379H104.475ZM104.475 92.1387H105.475V91.1387V86.2559V85.2559H104.475H93.8301C92.8767 85.2559 92.0399 85.6097 91.39 86.306C90.757 86.9842 90.4375 87.8158 90.4375 88.7461C90.4375 89.6952 90.7491 90.5461 91.414 91.211L91.4392 91.2362L91.4662 91.2596C92.1474 91.85 92.9699 92.1387 93.8789 92.1387H104.475ZM104.475 100.537H105.475V99.5371V94.6055V93.6055H104.475H93.8301C92.8767 93.6055 92.0399 93.9593 91.39 94.6556C90.757 95.3338 90.4375 96.1654 90.4375 97.0957C90.4375 98.0633 90.7403 98.9358 91.414 99.6095L91.4392 99.6347L91.4662 99.658C92.1474 100.248 92.9699 100.537 93.8789 100.537H104.475ZM104.475 108.838H105.475V107.838V102.955V101.955H104.475H87.6777C86.7259 101.955 85.8865 102.307 85.2128 102.98L85.2006 102.993L85.1889 103.005C84.5471 103.693 84.2363 104.545 84.2363 105.494C84.2363 106.442 84.5484 107.294 85.2395 107.936L85.252 107.948L85.265 107.959C85.9552 108.557 86.7978 108.838 87.7266 108.838H104.475Z"
              fill="currentColor" stroke="currentColor" stroke-width="2"/>
        <path d="M47.2899 118.36L47.3018 118.355C47.7727 118.17 48.0677 117.948 48.2503 117.721C48.4267 117.503 48.5403 117.229 48.5686 116.859L47.2899 118.36ZM47.2899 118.36L47.2781 118.365C46.8412 118.549 46.4917 118.578 46.2007 118.52C45.9098 118.462 45.5894 118.3 45.2405 117.956L35.4362 107.866L8.5262 33.8391L22.7081 28.6838L49.618 102.71L48.5687 116.858L47.2899 118.36ZM19.2348 18.9861L5.05289 24.1415L2.30839 16.5916C1.63842 14.7486 1.64303 13.2094 2.19134 11.9007L2.19141 11.9007L2.19613 11.889C2.72801 10.5733 3.77565 9.58891 5.48651 8.96698L9.11183 7.64912C10.8659 7.01147 12.3141 7.08061 13.5509 7.71933C14.8084 8.36873 15.8076 9.5583 16.4903 11.4363L19.2348 18.9861Z"
              fill="currentColor" stroke="currentColor" stroke-width="2"/>
    </g>
    <defs>
        <clipPath id="clip0_448_3015">
            <rect width="100%" height="100%" fill="currentColor"/>
        </clipPath>
    </defs>
</svg>