<svg xmlns="http://www.w3.org/2000/svg" viewBox="0 0 121 120" fill="none">
    <mask id="path-1-inside-1_448_3012" fill="white">
        <path d="M60.4434 119.918C52.2493 119.918 44.5462 118.351 37.334 115.217C30.1217 112.12 23.7591 107.816 18.2461 102.303C12.7331 96.8275 8.40951 90.4837 5.27539 83.2715C2.17904 76.0592 0.630859 68.3372 0.630859 60.1055C0.630859 51.9115 2.17904 44.2083 5.27539 36.9961C8.40951 29.7839 12.7142 23.4212 18.1895 17.9082C23.7025 12.3952 30.0651 8.09049 37.2773 4.99414C44.5273 1.86003 52.2493 0.292969 60.4434 0.292969C68.6374 0.292969 76.3405 1.86003 83.5527 4.99414C90.8027 8.09049 97.1654 12.3952 102.641 17.9082C108.154 23.4212 112.477 29.7839 115.611 36.9961C118.745 44.2083 120.312 51.9115 120.312 60.1055C120.312 68.3372 118.745 76.0592 115.611 83.2715C112.477 90.4837 108.154 96.8275 102.641 102.303C97.1654 107.816 90.8216 112.12 83.6094 115.217C76.3971 118.351 68.6751 119.918 60.4434 119.918ZM60.4434 92.6738C61.1986 92.6738 61.8027 92.4473 62.2559 91.9941C62.7467 91.5033 62.9922 90.8613 62.9922 90.0684V86.3867C68.2031 85.9336 72.4512 84.3288 75.7363 81.5723C79.0592 78.8158 80.7207 75.1341 80.7207 70.5273C80.7207 66.4492 79.418 63.2207 76.8125 60.8418C74.2448 58.4251 70.3555 56.7259 65.1445 55.7441L62.9922 55.291V43.2266C64.5404 43.5286 65.8242 44.1139 66.8438 44.9824C67.901 45.8132 68.7129 46.9082 69.2793 48.2676C70.4876 50.6087 72.2435 51.7793 74.5469 51.7793C76.0573 51.7793 77.2656 51.3639 78.1719 50.5332C79.0781 49.6647 79.5312 48.5697 79.5312 47.248C79.5312 46.8704 79.4935 46.474 79.418 46.0586C79.3424 45.6432 79.248 45.2467 79.1348 44.8691C78.304 42.0371 76.4727 39.6204 73.6406 37.6191C70.8464 35.5801 67.2969 34.3529 62.9922 33.9375V30.1426C62.9922 29.3496 62.7467 28.7266 62.2559 28.2734C61.8027 27.7826 61.1986 27.5371 60.4434 27.5371C59.7259 27.5371 59.1217 27.7826 58.6309 28.2734C58.14 28.7266 57.8945 29.3496 57.8945 30.1426V33.9375C52.9102 34.3529 48.8132 35.9388 45.6035 38.6953C42.3939 41.4141 40.7891 44.9635 40.7891 49.3438C40.7891 53.3464 42.0729 56.5371 44.6406 58.916C47.2461 61.2949 51.041 63.0319 56.0254 64.127L57.8945 64.5801V77.2109C55.931 76.9089 54.3639 76.2858 53.1934 75.3418C52.0605 74.3978 51.2676 73.2461 50.8145 71.8867C50.2858 70.7161 49.5872 69.8288 48.7188 69.2246C47.888 68.6204 46.8685 68.3184 45.6602 68.3184C44.0365 68.3184 42.7715 68.7715 41.8652 69.6777C40.959 70.584 40.5059 71.7546 40.5059 73.1895C40.5059 73.5671 40.5436 73.9635 40.6191 74.3789C40.6947 74.7565 40.8079 75.1719 40.959 75.625C41.8275 78.3815 43.6966 80.7793 46.5664 82.8184C49.474 84.8574 53.25 86.028 57.8945 86.3301V90.0684C57.8945 90.8613 58.14 91.5033 58.6309 91.9941C59.1217 92.4473 59.7259 92.6738 60.4434 92.6738ZM57.8945 53.9883L57.498 53.875C55.5723 53.3841 54.1185 52.7044 53.1367 51.8359C52.1927 50.9297 51.7207 49.8158 51.7207 48.4941C51.7207 47.1348 52.2682 45.9642 53.3633 44.9824C54.4961 44.0007 56.0065 43.3776 57.8945 43.1133V53.9883ZM62.9922 65.7129L63.8984 65.9395C66.0508 66.5059 67.5612 67.2233 68.4297 68.0918C69.3359 68.9603 69.7891 70.0931 69.7891 71.4902C69.7891 73.0384 69.2227 74.3223 68.0898 75.3418C66.957 76.3236 65.2578 76.9466 62.9922 77.2109V65.7129Z"/>
    </mask>
    <path d="M60.4434 119.918C52.2493 119.918 44.5462 118.351 37.334 115.217C30.1217 112.12 23.7591 107.816 18.2461 102.303C12.7331 96.8275 8.40951 90.4837 5.27539 83.2715C2.17904 76.0592 0.630859 68.3372 0.630859 60.1055C0.630859 51.9115 2.17904 44.2083 5.27539 36.9961C8.40951 29.7839 12.7142 23.4212 18.1895 17.9082C23.7025 12.3952 30.0651 8.09049 37.2773 4.99414C44.5273 1.86003 52.2493 0.292969 60.4434 0.292969C68.6374 0.292969 76.3405 1.86003 83.5527 4.99414C90.8027 8.09049 97.1654 12.3952 102.641 17.9082C108.154 23.4212 112.477 29.7839 115.611 36.9961C118.745 44.2083 120.312 51.9115 120.312 60.1055C120.312 68.3372 118.745 76.0592 115.611 83.2715C112.477 90.4837 108.154 96.8275 102.641 102.303C97.1654 107.816 90.8216 112.12 83.6094 115.217C76.3971 118.351 68.6751 119.918 60.4434 119.918ZM60.4434 92.6738C61.1986 92.6738 61.8027 92.4473 62.2559 91.9941C62.7467 91.5033 62.9922 90.8613 62.9922 90.0684V86.3867C68.2031 85.9336 72.4512 84.3288 75.7363 81.5723C79.0592 78.8158 80.7207 75.1341 80.7207 70.5273C80.7207 66.4492 79.418 63.2207 76.8125 60.8418C74.2448 58.4251 70.3555 56.7259 65.1445 55.7441L62.9922 55.291V43.2266C64.5404 43.5286 65.8242 44.1139 66.8438 44.9824C67.901 45.8132 68.7129 46.9082 69.2793 48.2676C70.4876 50.6087 72.2435 51.7793 74.5469 51.7793C76.0573 51.7793 77.2656 51.3639 78.1719 50.5332C79.0781 49.6647 79.5312 48.5697 79.5312 47.248C79.5312 46.8704 79.4935 46.474 79.418 46.0586C79.3424 45.6432 79.248 45.2467 79.1348 44.8691C78.304 42.0371 76.4727 39.6204 73.6406 37.6191C70.8464 35.5801 67.2969 34.3529 62.9922 33.9375V30.1426C62.9922 29.3496 62.7467 28.7266 62.2559 28.2734C61.8027 27.7826 61.1986 27.5371 60.4434 27.5371C59.7259 27.5371 59.1217 27.7826 58.6309 28.2734C58.14 28.7266 57.8945 29.3496 57.8945 30.1426V33.9375C52.9102 34.3529 48.8132 35.9388 45.6035 38.6953C42.3939 41.4141 40.7891 44.9635 40.7891 49.3438C40.7891 53.3464 42.0729 56.5371 44.6406 58.916C47.2461 61.2949 51.041 63.0319 56.0254 64.127L57.8945 64.5801V77.2109C55.931 76.9089 54.3639 76.2858 53.1934 75.3418C52.0605 74.3978 51.2676 73.2461 50.8145 71.8867C50.2858 70.7161 49.5872 69.8288 48.7188 69.2246C47.888 68.6204 46.8685 68.3184 45.6602 68.3184C44.0365 68.3184 42.7715 68.7715 41.8652 69.6777C40.959 70.584 40.5059 71.7546 40.5059 73.1895C40.5059 73.5671 40.5436 73.9635 40.6191 74.3789C40.6947 74.7565 40.8079 75.1719 40.959 75.625C41.8275 78.3815 43.6966 80.7793 46.5664 82.8184C49.474 84.8574 53.25 86.028 57.8945 86.3301V90.0684C57.8945 90.8613 58.14 91.5033 58.6309 91.9941C59.1217 92.4473 59.7259 92.6738 60.4434 92.6738ZM57.8945 53.9883L57.498 53.875C55.5723 53.3841 54.1185 52.7044 53.1367 51.8359C52.1927 50.9297 51.7207 49.8158 51.7207 48.4941C51.7207 47.1348 52.2682 45.9642 53.3633 44.9824C54.4961 44.0007 56.0065 43.3776 57.8945 43.1133V53.9883ZM62.9922 65.7129L63.8984 65.9395C66.0508 66.5059 67.5612 67.2233 68.4297 68.0918C69.3359 68.9603 69.7891 70.0931 69.7891 71.4902C69.7891 73.0384 69.2227 74.3223 68.0898 75.3418C66.957 76.3236 65.2578 76.9466 62.9922 77.2109V65.7129Z"
          fill="currentColor"/>
    <path d="M37.334 115.217L39.3267 110.631L39.3166 110.627L39.3065 110.622L37.334 115.217ZM18.2461 102.303L21.7816 98.7672L21.7756 98.7611L21.7695 98.7551L18.2461 102.303ZM5.27539 83.2715L0.680911 85.244L0.685262 85.2541L0.689659 85.2642L5.27539 83.2715ZM5.27539 36.9961L0.689659 35.0033L0.685262 35.0135L0.680911 35.0236L5.27539 36.9961ZM18.1895 17.9082L14.6539 14.3727L14.6478 14.3787L14.6418 14.3848L18.1895 17.9082ZM37.2773 4.99414L39.2498 9.58864L39.2614 9.58366L37.2773 4.99414ZM83.5527 4.99414L81.56 9.57987L81.5744 9.58615L81.5889 9.59234L83.5527 4.99414ZM102.641 17.9082L99.093 21.4316L99.099 21.4377L99.1051 21.4437L102.641 17.9082ZM115.611 83.2715L111.026 81.2787L111.026 81.2787L115.611 83.2715ZM102.641 102.303L99.1173 98.7551L99.1051 98.7672L99.093 98.7794L102.641 102.303ZM83.6094 115.217L81.6369 110.622L81.6267 110.627L81.6166 110.631L83.6094 115.217ZM62.2559 91.9941L58.7203 88.4586L62.2559 91.9941ZM62.9922 86.3867L62.559 81.4055L57.9922 81.8026V86.3867H62.9922ZM75.7363 81.5723L72.544 77.724L72.5332 77.733L72.5224 77.742L75.7363 81.5723ZM76.8125 60.8418L73.3857 64.4828L73.4132 64.5087L73.4412 64.5342L76.8125 60.8418ZM65.1445 55.7441L64.1145 60.6369L64.1665 60.6478L64.2188 60.6577L65.1445 55.7441ZM62.9922 55.291H57.9922V59.348L61.9621 60.1838L62.9922 55.291ZM62.9922 43.2266L63.9497 38.3191L57.9922 37.1567V43.2266H62.9922ZM66.8438 44.9824L63.6014 48.7886L63.6768 48.8528L63.7546 48.914L66.8438 44.9824ZM69.2793 48.2676L64.6639 50.1907L64.7425 50.3792L64.8362 50.5608L69.2793 48.2676ZM78.1719 50.5332L81.5505 54.219L81.5914 54.1815L81.6314 54.1431L78.1719 50.5332ZM79.1348 44.8691L74.3369 46.2765L74.3412 46.2912L74.3456 46.3059L79.1348 44.8691ZM73.6406 37.6191L70.6933 41.6581L70.724 41.6805L70.7551 41.7025L73.6406 37.6191ZM62.9922 33.9375H57.9922V38.4783L62.512 38.9144L62.9922 33.9375ZM62.2559 28.2734L58.5818 31.6648L58.7175 31.8118L58.8645 31.9475L62.2559 28.2734ZM58.6309 28.2734L62.0223 31.9475L62.0957 31.8797L62.1664 31.809L58.6309 28.2734ZM57.8945 33.9375L58.3098 38.9202L62.8945 38.5382V33.9375H57.8945ZM45.6035 38.6953L48.8352 42.5105L48.8482 42.4995L48.8611 42.4884L45.6035 38.6953ZM44.6406 58.916L41.2425 62.5838L41.2558 62.5962L41.2693 62.6084L44.6406 58.916ZM56.0254 64.127L57.2034 59.2677L57.151 59.255L57.0983 59.2434L56.0254 64.127ZM57.8945 64.5801H62.8945V60.6474L59.0725 59.7208L57.8945 64.5801ZM57.8945 77.2109L57.1342 82.1528L62.8945 83.039V77.2109H57.8945ZM53.1934 75.3418L49.9924 79.1829L50.0233 79.2086L50.0546 79.2339L53.1934 75.3418ZM50.8145 71.8867L55.5579 70.3056L55.4768 70.0624L55.3713 69.8288L50.8145 71.8867ZM48.7188 69.2246L45.7779 73.2683L45.8203 73.2992L45.8634 73.3291L48.7188 69.2246ZM40.6191 74.3789L35.6998 75.2733L35.7076 75.3165L35.7162 75.3595L40.6191 74.3789ZM40.959 75.625L45.7279 74.1225L45.7155 74.0831L45.7024 74.0439L40.959 75.625ZM46.5664 82.8184L43.6704 86.8943L43.6829 86.9032L43.6955 86.912L46.5664 82.8184ZM57.8945 86.3301H62.8945V81.6447L58.219 81.3406L57.8945 86.3301ZM58.6309 91.9941L55.0953 95.5297L55.166 95.6004L55.2395 95.6682L58.6309 91.9941ZM57.8945 53.9883L56.5209 58.7959L62.8945 60.6169V53.9883H57.8945ZM57.498 53.875L58.8717 49.0674L58.8026 49.0477L58.7331 49.0299L57.498 53.875ZM53.1367 51.8359L49.6741 55.4429L49.7475 55.5134L49.8238 55.5809L53.1367 51.8359ZM53.3633 44.9824L50.0886 41.204L50.0569 41.2315L50.0256 41.2596L53.3633 44.9824ZM57.8945 43.1133H62.8945V37.3645L57.2013 38.1616L57.8945 43.1133ZM62.9922 65.7129L64.2049 60.8622L57.9922 59.309V65.7129H62.9922ZM63.8984 65.9395L65.1709 61.1041L65.1411 61.0962L65.1111 61.0887L63.8984 65.9395ZM68.4297 68.0918L64.8942 71.6273L64.9318 71.6649L64.9702 71.7017L68.4297 68.0918ZM68.0898 75.3418L71.3645 79.1202L71.3999 79.0896L71.4347 79.0583L68.0898 75.3418ZM62.9922 77.2109H57.9922V82.8282L63.5716 82.1773L62.9922 77.2109ZM60.4434 114.918C52.9056 114.918 45.8837 113.48 39.3267 110.631L35.3412 119.803C43.2087 123.221 51.5931 124.918 60.4434 124.918V114.918ZM39.3065 110.622C32.6738 107.775 26.8425 103.828 21.7816 98.7672L14.7106 105.838C20.6757 111.803 27.5697 116.466 35.3615 119.811L39.3065 110.622ZM21.7695 98.7551C16.7114 93.7316 12.7459 87.9172 9.86112 81.2787L0.689659 85.2642C4.07309 93.0502 8.75477 99.9233 14.7227 105.85L21.7695 98.7551ZM9.86987 81.299C7.05405 74.7402 5.63086 67.6928 5.63086 60.1055H-4.36914C-4.36914 68.9817 -2.69598 77.3783 0.680911 85.244L9.86987 81.299ZM5.63086 60.1055C5.63086 52.5592 7.05282 45.5303 9.86987 38.9686L0.680911 35.0236C-2.69474 42.8864 -4.36914 51.2637 -4.36914 60.1055H5.63086ZM9.86112 38.9888C12.7505 32.3399 16.7054 26.498 21.7371 21.4316L14.6418 14.3848C8.72295 20.3445 4.06854 27.2278 0.689659 35.0033L9.86112 38.9888ZM21.725 21.4437C26.7859 16.3828 32.6171 12.4362 39.2498 9.58862L35.3048 0.399661C27.5131 3.74481 20.6191 8.40754 14.6539 14.3727L21.725 21.4437ZM39.2614 9.58366C45.8614 6.7305 52.9057 5.29297 60.4434 5.29297V-4.70703C51.593 -4.70703 43.1933 -3.01045 35.2933 0.40462L39.2614 9.58366ZM60.4434 5.29297C67.9812 5.29297 75.003 6.7305 81.56 9.57987L85.5455 0.408409C77.678 -3.01045 69.2936 -4.70703 60.4434 -4.70703V5.29297ZM81.5889 9.59234C88.2556 12.4395 94.0783 16.3823 99.093 21.4316L106.188 14.3848C100.252 8.40809 93.3499 3.74144 85.5165 0.395942L81.5889 9.59234ZM99.1051 21.4437C104.17 26.5091 108.139 32.3471 111.026 38.9888L120.197 35.0033C116.815 27.2206 112.137 20.3334 106.176 14.3727L99.1051 21.4437ZM111.026 38.9888C113.875 45.5458 115.312 52.5677 115.312 60.1055H125.312C125.312 51.2552 123.616 42.8708 120.197 35.0033L111.026 38.9888ZM115.312 60.1055C115.312 67.6843 113.874 74.7247 111.026 81.2787L120.197 85.2642C123.617 77.3938 125.312 68.9901 125.312 60.1055H115.312ZM111.026 81.2787C108.141 87.9172 104.175 93.7316 99.1173 98.7551L106.164 105.85C112.132 99.9233 116.814 93.0502 120.197 85.2642L111.026 81.2787ZM99.093 98.7794C94.0739 103.833 88.2664 107.776 81.6369 110.622L85.5819 119.811C93.3768 116.465 100.257 111.799 106.188 105.826L99.093 98.7794ZM81.6166 110.631C75.0625 113.479 68.0222 114.918 60.4434 114.918V124.918C69.328 124.918 77.7317 123.223 85.6021 119.803L81.6166 110.631ZM60.4434 97.6738C62.2698 97.6738 64.2346 97.0865 65.7914 95.5297L58.7203 88.4586C59.0021 88.1769 59.3458 87.9578 59.7073 87.8223C60.0533 87.6925 60.3216 87.6738 60.4434 87.6738V97.6738ZM65.7914 95.5297C67.3556 93.9655 67.9922 91.9824 67.9922 90.0684H57.9922C57.9922 89.9471 58.0118 89.6885 58.1378 89.3588C58.2688 89.0164 58.4739 88.705 58.7203 88.4586L65.7914 95.5297ZM67.9922 90.0684V86.3867H57.9922V90.0684H67.9922ZM63.4253 91.3679C69.4312 90.8457 74.7194 88.9525 78.9502 85.4025L72.5224 77.742C70.1829 79.705 66.9751 81.0215 62.559 81.4055L63.4253 91.3679ZM78.9286 85.4205C83.4816 81.6437 85.7207 76.5079 85.7207 70.5273H75.7207C75.7207 73.7603 74.6369 75.9879 72.544 77.724L78.9286 85.4205ZM85.7207 70.5273C85.7207 65.2849 83.9922 60.6266 80.1838 57.1494L73.4412 64.5342C74.8437 65.8149 75.7207 67.6135 75.7207 70.5273H85.7207ZM80.2393 57.2008C76.7093 53.8784 71.7781 51.906 66.0703 50.8306L64.2188 60.6577C68.9328 61.5458 71.7803 62.9718 73.3857 64.4828L80.2393 57.2008ZM66.1746 50.8514L64.0222 50.3983L61.9621 60.1838L64.1145 60.6369L66.1746 50.8514ZM67.9922 55.291V43.2266H57.9922V55.291H67.9922ZM62.0346 48.134C62.8899 48.3009 63.3439 48.5692 63.6014 48.7886L70.0861 41.1762C68.3046 39.6586 66.1908 38.7564 63.9497 38.3191L62.0346 48.134ZM63.7546 48.914C64.0771 49.1674 64.3941 49.5432 64.6639 50.1907L73.8947 46.3445C73.0317 44.2732 71.7249 42.4589 69.9329 41.0508L63.7546 48.914ZM64.8362 50.5608C65.7342 52.3008 66.9904 53.9026 68.7289 55.0616C70.5033 56.2445 72.5023 56.7793 74.5469 56.7793V46.7793C74.3977 46.7793 74.3258 46.7609 74.3074 46.7556C74.2925 46.7513 74.2876 46.7489 74.2759 46.7411C74.2586 46.7296 74.0327 46.5755 73.7224 45.9744L64.8362 50.5608ZM74.5469 56.7793C77.0085 56.7793 79.5227 56.0778 81.5505 54.219L74.7933 46.8474C74.8238 46.8194 74.8599 46.7926 74.8971 46.7707C74.9339 46.749 74.9579 46.7402 74.9605 46.7393C74.9648 46.7379 74.8472 46.7793 74.5469 46.7793V56.7793ZM81.6314 54.1431C83.5785 52.2772 84.5312 49.8519 84.5312 47.248H74.5312C74.5312 47.3284 74.5197 47.2735 74.5713 47.1488C74.5951 47.0914 74.6247 47.0381 74.6556 46.9933C74.6862 46.9492 74.709 46.9264 74.7123 46.9233L81.6314 54.1431ZM84.5312 47.248C84.5312 46.5378 84.4603 45.8406 84.3373 45.1642L74.4986 46.953C74.5267 47.1073 74.5312 47.2031 74.5312 47.248H84.5312ZM84.3373 45.1642C84.2308 44.5785 84.0942 44.0002 83.9239 43.4324L74.3456 46.3059C74.4018 46.4933 74.4541 46.7079 74.4986 46.953L84.3373 45.1642ZM83.9326 43.4618C82.731 39.3655 80.1112 36.0692 76.5262 33.5358L70.7551 41.7025C72.8341 43.1717 73.877 44.7087 74.3369 46.2765L83.9326 43.4618ZM76.588 33.5802C72.9098 30.8961 68.4478 29.4407 63.4724 28.9606L62.512 38.9144C66.146 39.265 68.7829 40.264 70.6933 41.6581L76.588 33.5802ZM67.9922 33.9375V30.1426H57.9922V33.9375H67.9922ZM67.9922 30.1426C67.9922 28.238 67.3551 26.1758 65.6473 24.5994L58.8645 31.9475C58.555 31.6618 58.3088 31.3009 58.1561 30.9132C58.0107 30.5443 57.9922 30.2602 57.9922 30.1426H67.9922ZM65.9299 24.882C64.402 23.2268 62.393 22.5371 60.4434 22.5371V32.5371C60.2766 32.5371 59.9634 32.5089 59.581 32.3535C59.1848 32.1926 58.8416 31.9462 58.5818 31.6648L65.9299 24.882ZM60.4434 22.5371C58.4494 22.5371 56.5584 23.2748 55.0953 24.7379L62.1664 31.809C61.9704 32.005 61.6902 32.2088 61.334 32.3535C60.9812 32.4969 60.665 32.5371 60.4434 32.5371V22.5371ZM55.2395 24.5994C53.5317 26.1758 52.8945 28.238 52.8945 30.1426H62.8945C62.8945 30.2602 62.876 30.5443 62.7307 30.9132C62.5779 31.3009 62.3318 31.6618 62.0223 31.9475L55.2395 24.5994ZM52.8945 30.1426V33.9375H62.8945V30.1426H52.8945ZM57.4793 28.9548C51.6425 29.4412 46.4918 31.3415 42.3459 34.9022L48.8611 42.4884C51.1345 40.5361 54.1778 39.2646 58.3098 38.9202L57.4793 28.9548ZM42.3718 34.8801C37.9885 38.593 35.7891 43.5634 35.7891 49.3438H45.7891C45.7891 46.3637 46.7992 44.2352 48.8352 42.5105L42.3718 34.8801ZM35.7891 49.3438C35.7891 54.5189 37.5027 59.119 41.2425 62.5838L48.0387 55.2482C46.6431 53.9552 45.7891 52.1738 45.7891 49.3438H35.7891ZM41.2693 62.6084C44.7493 65.7859 49.47 67.806 54.9525 69.0105L57.0983 59.2434C52.612 58.2578 49.7429 56.804 48.012 55.2236L41.2693 62.6084ZM54.8474 68.9862L56.7165 69.4393L59.0725 59.7208L57.2034 59.2677L54.8474 68.9862ZM52.8945 64.5801V77.2109H62.8945V64.5801H52.8945ZM58.6548 72.2691C57.2913 72.0593 56.6301 71.69 56.3321 71.4497L50.0546 79.2339C52.0978 80.8816 54.5707 81.7584 57.1342 82.1528L58.6548 72.2691ZM56.3943 71.5007C55.9539 71.1337 55.7081 70.7562 55.5579 70.3056L46.071 73.4679C46.8271 75.7359 48.1672 77.6619 49.9924 79.1829L56.3943 71.5007ZM55.3713 69.8288C54.5504 68.0111 53.3284 66.3405 51.5741 65.1201L45.8634 73.3291C45.8653 73.3305 45.9013 73.3546 45.9654 73.4361C46.0326 73.5215 46.1376 73.679 46.2576 73.9447L55.3713 69.8288ZM51.6596 65.1809C49.831 63.851 47.7331 63.3184 45.6602 63.3184V73.3184C45.8477 73.3184 45.9198 73.3416 45.9106 73.3389C45.9064 73.3377 45.8883 73.3318 45.861 73.3184C45.8334 73.3049 45.8047 73.2878 45.7779 73.2683L51.6596 65.1809ZM45.6602 63.3184C43.0825 63.3184 40.4076 64.0643 38.3297 66.1422L45.4008 73.2133C45.3609 73.2532 45.3139 73.2906 45.2655 73.3209C45.2178 73.3508 45.1853 73.3633 45.1798 73.3653C45.1718 73.3682 45.3069 73.3184 45.6602 73.3184V63.3184ZM38.3297 66.1422C36.3699 68.102 35.5059 70.6018 35.5059 73.1895H45.5059C45.5059 73.0938 45.5134 73.0396 45.5169 73.0195C45.5202 73.0006 45.5201 73.0104 45.5085 73.0403C45.4967 73.071 45.4783 73.1081 45.454 73.1453C45.4298 73.1822 45.4091 73.205 45.4008 73.2133L38.3297 66.1422ZM35.5059 73.1895C35.5059 73.8997 35.5768 74.5969 35.6998 75.2733L45.5385 73.4845C45.5104 73.3302 45.5059 73.2344 45.5059 73.1895H35.5059ZM35.7162 75.3595C35.8407 75.9818 36.0138 76.6009 36.2156 77.2061L45.7024 74.0439C45.6021 73.7428 45.5486 73.5312 45.522 73.3983L35.7162 75.3595ZM36.1901 77.1275C37.4522 81.1334 40.1111 84.3653 43.6704 86.8943L49.4624 78.7425C47.2821 77.1933 46.2028 75.6297 45.7279 74.1225L36.1901 77.1275ZM43.6955 86.912C47.5528 89.6171 52.2883 90.976 57.57 91.3195L58.219 81.3406C54.2117 81.08 51.3951 80.0977 49.4373 78.7247L43.6955 86.912ZM52.8945 86.3301V90.0684H62.8945V86.3301H52.8945ZM52.8945 90.0684C52.8945 91.9824 53.5311 93.9655 55.0953 95.5297L62.1664 88.4586C62.4128 88.705 62.6179 89.0164 62.7489 89.3588C62.8749 89.6885 62.8945 89.9471 62.8945 90.0684H52.8945ZM55.2395 95.6682C56.726 97.0403 58.5705 97.6738 60.4434 97.6738V87.6738C60.6174 87.6738 60.8891 87.7028 61.2078 87.8223C61.5324 87.944 61.8098 88.124 62.0223 88.3201L55.2395 95.6682ZM59.2681 49.1807L58.8717 49.0674L56.1244 58.6826L56.5209 58.7959L59.2681 49.1807ZM58.7331 49.0299C57.2143 48.6428 56.6075 48.2307 56.4496 48.091L49.8238 55.5809C51.6295 57.1782 53.9302 58.1254 56.263 58.7201L58.7331 49.0299ZM56.5994 48.229C56.5832 48.2135 56.5915 48.2188 56.6116 48.2474C56.6322 48.2769 56.6568 48.3188 56.6785 48.3701C56.7001 48.4212 56.7121 48.4654 56.7179 48.4951C56.7234 48.5238 56.7207 48.526 56.7207 48.4941H46.7207C46.7207 51.1619 47.7369 53.5832 49.6741 55.4429L56.5994 48.229ZM56.7207 48.4941C56.7207 48.492 56.7207 48.5194 56.7102 48.5676C56.6996 48.6167 56.6824 48.6681 56.6604 48.7151C56.65 48.7373 56.6402 48.7551 56.6323 48.768C56.6284 48.7744 56.6252 48.7792 56.623 48.7825C56.6218 48.7842 56.6209 48.7854 56.6203 48.7863C56.62 48.7867 56.6198 48.787 56.6196 48.7872C56.6196 48.7873 56.6195 48.7874 56.6195 48.7874C56.6194 48.7875 56.6194 48.7875 56.6194 48.7875C56.6194 48.7875 56.6194 48.7875 56.6194 48.7875C56.6194 48.7875 56.6194 48.7875 56.6194 48.7875C56.6194 48.7875 56.6195 48.7875 56.6195 48.7874C56.6195 48.7874 56.6196 48.7873 56.6197 48.7872C56.6198 48.787 56.6201 48.7867 56.6204 48.7862C56.6211 48.7854 56.6222 48.7841 56.6236 48.7824C56.6265 48.7789 56.6311 48.7737 56.6375 48.7668C56.6503 48.753 56.6709 48.7323 56.701 48.7053L50.0256 41.2596C47.97 43.1025 46.7207 45.5883 46.7207 48.4941H56.7207ZM56.6379 48.7609C56.8669 48.5624 57.3975 48.2316 58.5878 48.065L57.2013 38.1616C54.6155 38.5236 52.1253 39.4389 50.0886 41.204L56.6379 48.7609ZM52.8945 43.1133V53.9883H62.8945V43.1133H52.8945ZM61.7795 70.5636L62.6858 70.7902L65.1111 61.0887L64.2049 60.8622L61.7795 70.5636ZM62.626 70.7748C63.4938 71.0032 64.0999 71.2286 64.5002 71.4187C64.9132 71.6149 64.9806 71.7138 64.8942 71.6273L71.9652 64.5563C70.1455 62.7365 67.5846 61.7393 65.1709 61.1041L62.626 70.7748ZM64.9702 71.7017C64.9533 71.6856 64.9225 71.6525 64.8883 71.6021C64.8539 71.5514 64.8263 71.4984 64.8068 71.4497C64.7654 71.3462 64.7891 71.3363 64.7891 71.4902H74.7891C74.7891 68.9 73.8958 66.4048 71.8892 64.4819L64.9702 71.7017ZM64.7891 71.4902C64.7891 71.5715 64.7817 71.6123 64.78 71.6212C64.7784 71.6288 64.7802 71.6176 64.7897 71.5961C64.7939 71.5864 64.7985 71.5775 64.8028 71.5702C64.807 71.5629 64.8097 71.5592 64.8096 71.5593C64.8095 71.5595 64.8054 71.5651 64.7957 71.5757C64.7859 71.5865 64.7696 71.6032 64.745 71.6253L71.4347 79.0583C73.64 77.0735 74.7891 74.4302 74.7891 71.4902H64.7891ZM64.8152 71.5634C64.7419 71.6269 64.1675 72.0399 62.4128 72.2446L63.5716 82.1773C66.3481 81.8533 69.1721 81.0203 71.3645 79.1202L64.8152 71.5634ZM67.9922 77.2109V65.7129H57.9922V77.2109H67.9922Z"
          fill="currentColor" mask="url(#path-1-inside-1_448_3012)"/>
</svg>