<svg xmlns="http://www.w3.org/2000/svg" viewBox="0 0 188 91" fill="none">
    <mask id="path-1-inside-1_448_3014" fill="currentColor">
        <path d="M64.3613 90.6191C59.804 90.6191 56.6465 89.8704 54.8887 88.373C53.1309 86.8757 52.252 84.8574 52.252 82.3184C52.252 79.2259 53.2285 75.9707 55.1816 72.5527C57.1673 69.1348 59.9831 65.9447 63.6289 62.9824C67.3073 59.9876 71.7181 57.5625 76.8613 55.707C82.0046 53.8516 87.7337 52.9238 94.0488 52.9238C100.364 52.9238 106.093 53.8516 111.236 55.707C116.38 57.5625 120.774 59.9876 124.42 62.9824C128.098 65.9447 130.914 69.1348 132.867 72.5527C134.853 75.9707 135.846 79.2259 135.846 82.3184C135.846 84.8574 134.967 86.8757 133.209 88.373C131.451 89.8704 128.294 90.6191 123.736 90.6191H64.3613ZM94.0488 44.5254C90.3053 44.5254 86.9036 43.5488 83.8438 41.5957C80.7839 39.61 78.3424 36.957 76.5195 33.6367C74.7292 30.2839 73.834 26.5729 73.834 22.5039C73.834 18.5651 74.7292 14.9518 76.5195 11.6641C78.3424 8.34375 80.7839 5.70703 83.8438 3.75391C86.9362 1.80078 90.3379 0.824219 94.0488 0.824219C97.7923 0.824219 101.178 1.80078 104.205 3.75391C107.265 5.70703 109.706 8.32747 111.529 11.6152C113.385 14.903 114.312 18.5163 114.312 22.4551C114.312 26.5566 113.401 30.2839 111.578 33.6367C109.755 36.957 107.314 39.61 104.254 41.5957C101.227 43.5488 97.8249 44.5254 94.0488 44.5254ZM10.8945 90.668C6.98828 90.668 4.28646 89.7891 2.78906 88.0312C1.29167 86.306 0.542969 83.9134 0.542969 80.8535C0.542969 77.7611 1.43815 74.571 3.22852 71.2832C5.01888 67.9954 7.54167 64.9681 10.7969 62.2012C14.0521 59.4342 17.8932 57.1882 22.3203 55.4629C26.7474 53.7051 31.5977 52.8262 36.8711 52.8262C40.875 52.8262 44.5859 53.3307 48.0039 54.3398C51.4219 55.349 54.4167 56.6022 56.9883 58.0996C53.8633 60.6712 51.2754 63.4382 49.2246 66.4004C47.1738 69.3301 45.6602 72.2923 44.6836 75.2871C43.7396 78.2819 43.3652 81.0977 43.5605 83.7344C43.7884 86.4036 44.5859 88.7148 45.9531 90.668H10.8945ZM36.8711 45.5996C33.6484 45.5996 30.7025 44.737 28.0332 43.0117C25.3639 41.2865 23.248 38.9753 21.6855 36.0781C20.123 33.181 19.3255 29.9583 19.293 26.4102C19.293 22.9596 20.0742 19.8021 21.6367 16.9375C23.2318 14.0729 25.3639 11.778 28.0332 10.0527C30.735 8.32747 33.681 7.46484 36.8711 7.46484C40.1263 7.46484 43.0885 8.32747 45.7578 10.0527C48.4271 11.778 50.5592 14.0729 52.1543 16.9375C53.7493 19.8021 54.5469 22.9434 54.5469 26.3613C54.5469 29.9421 53.7493 33.181 52.1543 36.0781C50.5918 38.9753 48.4759 41.2865 45.8066 43.0117C43.1374 44.737 40.1589 45.5996 36.8711 45.5996ZM177.105 90.668H142.047C143.414 88.7148 144.195 86.4036 144.391 83.7344C144.618 81.0977 144.244 78.2819 143.268 75.2871C142.324 72.2923 140.826 69.3301 138.775 66.4004C136.725 63.4382 134.137 60.6712 131.012 58.0996C133.583 56.6022 136.578 55.349 139.996 54.3398C143.414 53.3307 147.125 52.8262 151.129 52.8262C156.402 52.8262 161.253 53.7051 165.68 55.4629C170.107 57.1882 173.948 59.4342 177.203 62.2012C180.491 64.9681 183.014 67.9954 184.771 71.2832C186.562 74.571 187.457 77.7611 187.457 80.8535C187.457 83.9134 186.708 86.306 185.211 88.0312C183.714 89.7891 181.012 90.668 177.105 90.668ZM151.129 45.5996C147.841 45.5996 144.863 44.737 142.193 43.0117C139.524 41.2865 137.392 38.9753 135.797 36.0781C134.234 33.181 133.453 29.9421 133.453 26.3613C133.453 22.9434 134.251 19.8021 135.846 16.9375C137.441 14.0729 139.573 11.778 142.242 10.0527C144.911 8.32747 147.874 7.46484 151.129 7.46484C154.352 7.46484 157.281 8.32747 159.918 10.0527C162.587 11.778 164.719 14.0729 166.314 16.9375C167.91 19.8021 168.707 22.9596 168.707 26.4102C168.674 29.9583 167.861 33.181 166.266 36.0781C164.703 38.9753 162.604 41.2865 159.967 43.0117C157.33 44.737 154.384 45.5996 151.129 45.5996Z"/>
    </mask>
    <path d="M64.3613 90.6191C59.804 90.6191 56.6465 89.8704 54.8887 88.373C53.1309 86.8757 52.252 84.8574 52.252 82.3184C52.252 79.2259 53.2285 75.9707 55.1816 72.5527C57.1673 69.1348 59.9831 65.9447 63.6289 62.9824C67.3073 59.9876 71.7181 57.5625 76.8613 55.707C82.0046 53.8516 87.7337 52.9238 94.0488 52.9238C100.364 52.9238 106.093 53.8516 111.236 55.707C116.38 57.5625 120.774 59.9876 124.42 62.9824C128.098 65.9447 130.914 69.1348 132.867 72.5527C134.853 75.9707 135.846 79.2259 135.846 82.3184C135.846 84.8574 134.967 86.8757 133.209 88.373C131.451 89.8704 128.294 90.6191 123.736 90.6191H64.3613ZM94.0488 44.5254C90.3053 44.5254 86.9036 43.5488 83.8438 41.5957C80.7839 39.61 78.3424 36.957 76.5195 33.6367C74.7292 30.2839 73.834 26.5729 73.834 22.5039C73.834 18.5651 74.7292 14.9518 76.5195 11.6641C78.3424 8.34375 80.7839 5.70703 83.8438 3.75391C86.9362 1.80078 90.3379 0.824219 94.0488 0.824219C97.7923 0.824219 101.178 1.80078 104.205 3.75391C107.265 5.70703 109.706 8.32747 111.529 11.6152C113.385 14.903 114.312 18.5163 114.312 22.4551C114.312 26.5566 113.401 30.2839 111.578 33.6367C109.755 36.957 107.314 39.61 104.254 41.5957C101.227 43.5488 97.8249 44.5254 94.0488 44.5254ZM10.8945 90.668C6.98828 90.668 4.28646 89.7891 2.78906 88.0312C1.29167 86.306 0.542969 83.9134 0.542969 80.8535C0.542969 77.7611 1.43815 74.571 3.22852 71.2832C5.01888 67.9954 7.54167 64.9681 10.7969 62.2012C14.0521 59.4342 17.8932 57.1882 22.3203 55.4629C26.7474 53.7051 31.5977 52.8262 36.8711 52.8262C40.875 52.8262 44.5859 53.3307 48.0039 54.3398C51.4219 55.349 54.4167 56.6022 56.9883 58.0996C53.8633 60.6712 51.2754 63.4382 49.2246 66.4004C47.1738 69.3301 45.6602 72.2923 44.6836 75.2871C43.7396 78.2819 43.3652 81.0977 43.5605 83.7344C43.7884 86.4036 44.5859 88.7148 45.9531 90.668H10.8945ZM36.8711 45.5996C33.6484 45.5996 30.7025 44.737 28.0332 43.0117C25.3639 41.2865 23.248 38.9753 21.6855 36.0781C20.123 33.181 19.3255 29.9583 19.293 26.4102C19.293 22.9596 20.0742 19.8021 21.6367 16.9375C23.2318 14.0729 25.3639 11.778 28.0332 10.0527C30.735 8.32747 33.681 7.46484 36.8711 7.46484C40.1263 7.46484 43.0885 8.32747 45.7578 10.0527C48.4271 11.778 50.5592 14.0729 52.1543 16.9375C53.7493 19.8021 54.5469 22.9434 54.5469 26.3613C54.5469 29.9421 53.7493 33.181 52.1543 36.0781C50.5918 38.9753 48.4759 41.2865 45.8066 43.0117C43.1374 44.737 40.1589 45.5996 36.8711 45.5996ZM177.105 90.668H142.047C143.414 88.7148 144.195 86.4036 144.391 83.7344C144.618 81.0977 144.244 78.2819 143.268 75.2871C142.324 72.2923 140.826 69.3301 138.775 66.4004C136.725 63.4382 134.137 60.6712 131.012 58.0996C133.583 56.6022 136.578 55.349 139.996 54.3398C143.414 53.3307 147.125 52.8262 151.129 52.8262C156.402 52.8262 161.253 53.7051 165.68 55.4629C170.107 57.1882 173.948 59.4342 177.203 62.2012C180.491 64.9681 183.014 67.9954 184.771 71.2832C186.562 74.571 187.457 77.7611 187.457 80.8535C187.457 83.9134 186.708 86.306 185.211 88.0312C183.714 89.7891 181.012 90.668 177.105 90.668ZM151.129 45.5996C147.841 45.5996 144.863 44.737 142.193 43.0117C139.524 41.2865 137.392 38.9753 135.797 36.0781C134.234 33.181 133.453 29.9421 133.453 26.3613C133.453 22.9434 134.251 19.8021 135.846 16.9375C137.441 14.0729 139.573 11.778 142.242 10.0527C144.911 8.32747 147.874 7.46484 151.129 7.46484C154.352 7.46484 157.281 8.32747 159.918 10.0527C162.587 11.778 164.719 14.0729 166.314 16.9375C167.91 19.8021 168.707 22.9596 168.707 26.4102C168.674 29.9583 167.861 33.181 166.266 36.0781C164.703 38.9753 162.604 41.2865 159.967 43.0117C157.33 44.737 154.384 45.5996 151.129 45.5996Z"
          fill="currentColor"/>
    <path d="M54.8887 88.373L51.6463 92.1793L54.8887 88.373ZM55.1816 72.5527L50.8583 70.0411L50.8493 70.0565L50.8404 70.072L55.1816 72.5527ZM63.6289 62.9824L66.7819 66.863L66.7857 66.8598L63.6289 62.9824ZM111.236 55.707L109.54 60.4103L111.236 55.707ZM124.42 62.9824L121.246 66.8461L121.265 66.8614L121.284 66.8767L124.42 62.9824ZM132.867 72.5527L128.526 75.0334L128.535 75.0489L128.544 75.0644L132.867 72.5527ZM83.8438 41.5957L81.1219 45.79L81.1377 45.8002L81.1536 45.8103L83.8438 41.5957ZM76.5195 33.6367L72.109 35.9919L72.1226 36.0175L72.1366 36.043L76.5195 33.6367ZM76.5195 11.6641L72.1366 9.25777L72.1325 9.2653L72.1284 9.27285L76.5195 11.6641ZM83.8438 3.75391L81.1738 -0.473538L81.1637 -0.467146L81.1536 -0.460705L83.8438 3.75391ZM104.205 3.75391L101.494 7.95539L101.505 7.96198L101.515 7.96852L104.205 3.75391ZM111.529 11.6152L107.156 14.0398L107.166 14.0563L107.175 14.0727L111.529 11.6152ZM111.578 33.6367L115.961 36.043L115.966 36.034L115.971 36.025L111.578 33.6367ZM104.254 41.5957L106.965 45.7972L106.976 45.79L104.254 41.5957ZM2.78906 88.0312L6.59528 84.7889L6.5803 84.7713L6.56516 84.7539L2.78906 88.0312ZM3.22852 71.2832L-1.16262 68.892L3.22852 71.2832ZM22.3203 55.4629L24.1358 60.1216L24.1507 60.1158L24.1655 60.11L22.3203 55.4629ZM56.9883 58.0996L60.1654 61.9604L65.7139 57.3945L59.5042 53.7787L56.9883 58.0996ZM49.2246 66.4004L53.3208 69.2677L53.3282 69.2571L53.3356 69.2464L49.2246 66.4004ZM44.6836 75.2871L39.9299 73.737L39.9223 73.7604L39.9149 73.7839L44.6836 75.2871ZM43.5605 83.7344L38.5742 84.1037L38.5763 84.1317L38.5787 84.1597L43.5605 83.7344ZM45.9531 90.668V95.668H55.5564L50.0493 87.8007L45.9531 90.668ZM19.293 26.4102H14.293V26.4331L14.2932 26.456L19.293 26.4102ZM21.6367 16.9375L17.2683 14.5051L17.2577 14.5241L17.2472 14.5432L21.6367 16.9375ZM28.0332 10.0527L25.3423 5.83861L25.3306 5.84603L25.3191 5.85351L28.0332 10.0527ZM52.1543 16.9375L47.7859 19.3699L52.1543 16.9375ZM52.1543 36.0781L47.7743 33.6666L47.7638 33.6856L47.7535 33.7047L52.1543 36.0781ZM142.047 90.668L137.951 87.8007L132.444 95.668H142.047V90.668ZM144.391 83.7344L139.409 83.3039L139.406 83.3367L139.404 83.3695L144.391 83.7344ZM143.268 75.2871L138.499 76.7903L138.506 76.8138L138.514 76.8372L143.268 75.2871ZM138.775 66.4004L134.664 69.2464L134.672 69.2571L134.679 69.2677L138.775 66.4004ZM131.012 58.0996L128.496 53.7787L122.286 57.3945L127.835 61.9604L131.012 58.0996ZM165.68 55.4629L163.835 60.11L163.849 60.1158L163.864 60.1216L165.68 55.4629ZM177.203 62.2012L173.965 66.0109L173.974 66.0188L173.984 66.0267L177.203 62.2012ZM184.771 71.2832L180.362 73.6407L180.371 73.6576L180.38 73.6744L184.771 71.2832ZM185.211 88.0312L181.435 84.7539L181.42 84.7713L181.405 84.7889L185.211 88.0312ZM135.797 36.0781L131.396 38.4516L131.406 38.4706L131.417 38.4896L135.797 36.0781ZM135.846 16.9375L140.214 19.3699L135.846 16.9375ZM159.918 10.0527L157.18 14.2367L157.192 14.2443L157.204 14.252L159.918 10.0527ZM166.314 16.9375L161.946 19.3699L166.314 16.9375ZM168.707 26.4102L173.707 26.456L173.707 26.4331V26.4102H168.707ZM166.266 36.0781L161.886 33.6666L161.875 33.6856L161.865 33.7047L166.266 36.0781ZM64.3613 85.6191C60.0034 85.6191 58.4426 84.8322 58.131 84.5668L51.6463 92.1793C54.8504 94.9087 59.6047 95.6191 64.3613 95.6191V85.6191ZM58.131 84.5668C57.6079 84.1212 57.252 83.557 57.252 82.3184H47.252C47.252 86.1578 48.6538 89.6301 51.6463 92.1793L58.131 84.5668ZM57.252 82.3184C57.252 80.3027 57.8858 77.8983 59.5229 75.0334L50.8404 70.072C48.5712 74.0431 47.252 78.1491 47.252 82.3184H57.252ZM59.505 75.0644C61.1353 72.2582 63.5193 69.5138 66.7819 66.863L60.4759 59.1019C56.4468 62.3755 53.1994 66.0113 50.8583 70.0411L59.505 75.0644ZM66.7857 66.8598C69.9664 64.2703 73.8651 62.1034 78.5581 60.4103L75.1646 51.0037C69.5711 53.0216 64.6482 55.705 60.4721 59.105L66.7857 66.8598ZM78.5581 60.4103C83.08 58.779 88.224 57.9238 94.0488 57.9238V47.9238C87.2434 47.9238 80.9291 48.9241 75.1646 51.0037L78.5581 60.4103ZM94.0488 57.9238C99.8736 57.9238 105.018 58.779 109.54 60.4103L112.933 51.0037C107.169 48.9241 100.854 47.9238 94.0488 47.9238V57.9238ZM109.54 60.4103C114.23 62.1024 118.105 64.2658 121.246 66.8461L127.594 59.1188C123.443 55.7094 118.529 53.0226 112.933 51.0037L109.54 60.4103ZM121.284 66.8767C124.571 69.5235 126.938 72.2543 128.526 75.0334L137.208 70.072C134.89 66.0152 131.626 62.3658 127.556 59.0882L121.284 66.8767ZM128.544 75.0644C130.207 77.9278 130.846 80.3213 130.846 82.3184H140.846C140.846 78.1305 139.498 74.0136 137.191 70.0411L128.544 75.0644ZM130.846 82.3184C130.846 83.557 130.49 84.1212 129.967 84.5668L136.451 92.1793C139.444 89.6301 140.846 86.1578 140.846 82.3184H130.846ZM129.967 84.5668C129.655 84.8322 128.094 85.6191 123.736 85.6191V95.6191C128.493 95.6191 133.247 94.9087 136.451 92.1793L129.967 84.5668ZM123.736 85.6191H64.3613V95.6191H123.736V85.6191ZM94.0488 39.5254C91.2272 39.5254 88.7642 38.8047 86.5339 37.3811L81.1536 45.8103C85.0431 48.293 89.3835 49.5254 94.0488 49.5254V39.5254ZM86.5656 37.4014C84.2256 35.883 82.3437 33.8555 80.9024 31.2304L72.1366 36.043C74.3412 40.0585 77.3421 43.3371 81.1219 45.79L86.5656 37.4014ZM80.9301 31.2816C79.5539 28.7042 78.834 25.8109 78.834 22.5039H68.834C68.834 27.3349 69.9045 31.8635 72.109 35.9919L80.9301 31.2816ZM78.834 22.5039C78.834 19.3555 79.5409 16.5708 80.9107 14.0553L72.1284 9.27285C69.9175 13.3329 68.834 17.7747 68.834 22.5039H78.834ZM80.9024 14.0704C82.3399 11.4521 84.2122 9.45047 86.5339 7.96852L81.1536 -0.460705C77.3555 1.96359 74.345 5.23539 72.1366 9.25777L80.9024 14.0704ZM86.5137 7.98135C88.7948 6.54065 91.2684 5.82422 94.0488 5.82422V-4.17578C89.4074 -4.17578 85.0776 -2.93909 81.1738 -0.473538L86.5137 7.98135ZM94.0488 5.82422C96.8704 5.82422 99.3077 6.5446 101.494 7.95539L106.916 -0.447577C103.048 -2.94304 98.7142 -4.17578 94.0488 -4.17578V5.82422ZM101.515 7.96852C103.848 9.45792 105.722 11.4525 107.156 14.0398L115.902 9.1907C113.691 5.20248 110.682 1.95614 106.895 -0.460705L101.515 7.96852ZM107.175 14.0727C108.588 16.5775 109.312 19.3385 109.312 22.4551H119.312C119.312 17.694 118.181 13.2285 115.884 9.15779L107.175 14.0727ZM109.312 22.4551C109.312 25.7865 108.58 28.6829 107.185 31.2484L115.971 36.025C118.222 31.8848 119.312 27.3268 119.312 22.4551H109.312ZM107.195 31.2304C105.754 33.8555 103.872 35.883 101.532 37.4014L106.976 45.79C110.756 43.3371 113.756 40.0585 115.961 36.043L107.195 31.2304ZM101.543 37.3942C99.3638 38.8003 96.912 39.5254 94.0488 39.5254V49.5254C98.7377 49.5254 103.089 48.2973 106.965 45.7972L101.543 37.3942ZM10.8945 85.668C7.47718 85.668 6.65342 84.8572 6.59528 84.7889L-1.01715 91.2736C1.91949 94.7209 6.49938 95.668 10.8945 95.668V85.668ZM6.56516 84.7539C6.09116 84.2078 5.54297 83.1222 5.54297 80.8535H-4.45703C-4.45703 84.7047 -3.50783 88.4042 -0.987031 91.3086L6.56516 84.7539ZM5.54297 80.8535C5.54297 78.7554 6.14525 76.382 7.61965 73.6744L-1.16262 68.892C-3.26895 72.76 -4.45703 76.7668 -4.45703 80.8535H5.54297ZM7.61965 73.6744C9.0777 70.9969 11.1827 68.4354 14.0351 66.0109L7.55863 58.3915C3.90066 61.5008 0.960061 64.994 -1.16262 68.892L7.61965 73.6744ZM14.0351 66.0109C16.8219 63.6421 20.1692 61.6674 24.1358 60.1216L20.5048 50.8042C15.6172 52.7089 11.2823 55.2264 7.55863 58.3915L14.0351 66.0109ZM24.1655 60.11C27.9456 58.6091 32.1618 57.8262 36.8711 57.8262V47.8262C31.0335 47.8262 25.5492 48.8011 20.4751 50.8158L24.1655 60.11ZM36.8711 57.8262C40.454 57.8262 43.6826 58.2774 46.5881 59.1352L49.4197 49.5445C45.4893 48.3841 41.296 47.8262 36.8711 47.8262V57.8262ZM46.5881 59.1352C49.6947 60.0524 52.3072 61.1598 54.4723 62.4205L59.5042 53.7787C56.5261 52.0446 53.149 50.6455 49.4197 49.5445L46.5881 59.1352ZM53.8112 54.2388C50.3727 57.0683 47.4574 60.1689 45.1136 63.5543L53.3356 69.2464C55.0934 66.7074 57.3538 64.2741 60.1654 61.9604L53.8112 54.2388ZM45.1284 63.5331C42.8323 66.8133 41.0786 70.2146 39.9299 73.737L49.4372 76.8372C50.2418 74.37 51.5153 71.8469 53.3208 69.2677L45.1284 63.5331ZM39.9149 73.7839C38.8153 77.2723 38.3242 80.728 38.5742 84.1037L48.5469 83.365C48.4063 81.4673 48.6639 79.2915 49.4523 76.7903L39.9149 73.7839ZM38.5787 84.1597C38.872 87.5959 39.9243 90.7744 41.857 93.5353L50.0493 87.8007C49.2475 86.6553 48.7048 85.2114 48.5424 83.3091L38.5787 84.1597ZM45.9531 85.668H10.8945V95.668H45.9531V85.668ZM36.8711 40.5996C34.5971 40.5996 32.596 40.0074 30.7473 38.8125L25.3191 47.2109C28.809 49.4666 32.6998 50.5996 36.8711 50.5996V40.5996ZM30.7473 38.8125C28.8108 37.5608 27.2641 35.8884 26.0863 33.7047L17.2848 38.4516C19.232 42.0621 21.9171 45.0121 25.3191 47.2109L30.7473 38.8125ZM26.0863 33.7047C24.9395 31.5783 24.3184 29.1645 24.2928 26.3643L14.2932 26.456C14.3326 30.7522 15.3066 34.7837 17.2848 38.4516L26.0863 33.7047ZM24.293 26.4102C24.293 23.7465 24.8874 21.4195 26.0262 19.3318L17.2472 14.5432C15.261 18.1847 14.293 22.1727 14.293 26.4102H24.293ZM26.0052 19.3699C27.2149 17.1974 28.7881 15.5183 30.7473 14.252L25.3191 5.85351C21.9398 8.03769 19.2487 10.9484 17.2683 14.5051L26.0052 19.3699ZM30.7241 14.2669C32.6264 13.0521 34.6395 12.4648 36.8711 12.4648V2.46484C32.7225 2.46484 28.8436 3.60281 25.3423 5.83861L30.7241 14.2669ZM36.8711 12.4648C39.188 12.4648 41.2036 13.0626 43.0437 14.252L48.4719 5.85351C44.9735 3.59231 41.0646 2.46484 36.8711 2.46484V12.4648ZM43.0437 14.252C45.0029 15.5183 46.5762 17.1974 47.7859 19.3699L56.5227 14.5051C54.5423 10.9484 51.8512 8.03769 48.4719 5.85351L43.0437 14.252ZM47.7859 19.3699C48.9488 21.4585 49.5469 23.7571 49.5469 26.3613H59.5469C59.5469 22.1296 58.5499 18.1456 56.5227 14.5051L47.7859 19.3699ZM49.5469 26.3613C49.5469 29.1705 48.9294 31.5685 47.7743 33.6666L56.5343 38.4896C58.5693 34.7934 59.5469 30.7136 59.5469 26.3613H49.5469ZM47.7535 33.7047C46.5758 35.8884 45.0291 37.5608 43.0925 38.8125L48.5208 47.2109C51.9227 45.0121 54.6078 42.0621 56.5551 38.4516L47.7535 33.7047ZM43.0925 38.8125C41.2609 39.9964 39.2309 40.5996 36.8711 40.5996V50.5996C41.0868 50.5996 45.0139 49.4776 48.5208 47.2109L43.0925 38.8125ZM177.105 85.668H142.047V95.668H177.105V85.668ZM146.143 93.5353C148.089 90.756 149.124 87.5548 149.377 84.0993L139.404 83.3695C139.266 85.2525 138.74 86.6737 137.951 87.8007L146.143 93.5353ZM149.372 84.1649C149.668 80.7448 149.167 77.2508 148.021 73.737L138.514 76.8372C139.321 79.313 139.569 81.4505 139.409 83.3039L149.372 84.1649ZM148.036 73.7839C146.919 70.2406 145.175 66.8235 142.872 63.5331L134.679 69.2677C136.477 71.8366 137.728 74.344 138.499 76.7903L148.036 73.7839ZM142.886 63.5543C140.543 60.1689 137.627 57.0683 134.189 54.2388L127.835 61.9604C130.646 64.2741 132.907 66.7074 134.664 69.2464L142.886 63.5543ZM133.528 62.4205C135.693 61.1598 138.305 60.0524 141.412 59.1352L138.58 49.5445C134.851 50.6455 131.474 52.0446 128.496 53.7787L133.528 62.4205ZM141.412 59.1352C144.317 58.2774 147.546 57.8262 151.129 57.8262V47.8262C146.704 47.8262 142.511 48.3841 138.58 49.5445L141.412 59.1352ZM151.129 57.8262C155.838 57.8262 160.054 58.6091 163.835 60.11L167.525 50.8158C162.451 48.8011 156.967 47.8262 151.129 47.8262V57.8262ZM163.864 60.1216C167.831 61.6674 171.178 63.6421 173.965 66.0109L180.441 58.3915C176.718 55.2264 172.383 52.7089 167.495 50.8042L163.864 60.1216ZM173.984 66.0267C176.858 68.4461 178.946 70.9922 180.362 73.6407L189.181 68.9257C187.081 64.9987 184.123 61.4901 180.423 58.3756L173.984 66.0267ZM180.38 73.6744C181.855 76.382 182.457 78.7554 182.457 80.8535H192.457C192.457 76.7668 191.269 72.76 189.163 68.892L180.38 73.6744ZM182.457 80.8535C182.457 83.1222 181.909 84.2078 181.435 84.7539L188.987 91.3086C191.508 88.4042 192.457 84.7047 192.457 80.8535H182.457ZM181.405 84.7889C181.347 84.8572 180.523 85.668 177.105 85.668V95.668C181.501 95.668 186.081 94.7209 189.017 91.2736L181.405 84.7889ZM151.129 40.5996C148.769 40.5996 146.739 39.9964 144.907 38.8125L139.479 47.2109C142.986 49.4776 146.913 50.5996 151.129 50.5996V40.5996ZM144.907 38.8125C142.961 37.5547 141.39 35.8697 140.177 33.6666L131.417 38.4896C133.394 42.0808 136.087 45.0182 139.479 47.2109L144.907 38.8125ZM140.198 33.7047C139.062 31.5997 138.453 29.188 138.453 26.3613H128.453C128.453 30.6961 129.406 34.7622 131.396 38.4516L140.198 33.7047ZM138.453 26.3613C138.453 23.7571 139.051 21.4585 140.214 19.3699L131.477 14.5051C129.45 18.1456 128.453 22.1296 128.453 26.3613H138.453ZM140.214 19.3699C141.424 17.1974 142.997 15.5183 144.956 14.252L139.528 5.85351C136.149 8.03769 133.458 10.9484 131.477 14.5051L140.214 19.3699ZM144.956 14.252C146.796 13.0626 148.812 12.4648 151.129 12.4648V2.46484C146.935 2.46484 143.027 3.59231 139.528 5.85351L144.956 14.252ZM151.129 12.4648C153.403 12.4648 155.377 13.0566 157.18 14.2367L162.656 5.8688C159.186 3.59838 155.301 2.46484 151.129 2.46484V12.4648ZM157.204 14.252C159.163 15.5183 160.736 17.1974 161.946 19.3699L170.683 14.5051C168.702 10.9484 166.011 8.03769 162.632 5.85351L157.204 14.252ZM161.946 19.3699C163.105 21.4513 163.707 23.7648 163.707 26.4102H173.707C173.707 22.1545 172.714 18.1529 170.683 14.5051L161.946 19.3699ZM163.707 26.3643C163.682 29.1468 163.053 31.5471 161.886 33.6666L170.646 38.4896C172.669 34.8149 173.667 30.7698 173.707 26.456L163.707 26.3643ZM161.865 33.7047C160.679 35.9032 159.138 37.5788 157.229 38.8278L162.704 47.1957C166.069 44.9941 168.727 42.0473 170.666 38.4516L161.865 33.7047ZM157.229 38.8278C155.434 40.0023 153.446 40.5996 151.129 40.5996V50.5996C155.323 50.5996 159.226 49.4717 162.704 47.1957L157.229 38.8278Z"
          fill="currentColor" mask="url(#path-1-inside-1_448_3014)"/>
</svg>