<svg xmlns="http://www.w3.org/2000/svg" viewBox="0 0 115 134" fill="none">
    <mask id="path-1-inside-1_448_3013" fill="currentColor">
        <path d="M57.4434 133.941C52.1569 133.941 47.1725 132.941 42.4902 130.939C37.8079 128.938 33.6921 126.163 30.1426 122.613C26.6309 119.102 23.8743 115.005 21.873 110.322C19.9095 105.678 18.9277 100.693 18.9277 95.3691C18.9277 90.0449 19.9095 85.0605 21.873 80.416C23.8743 75.7337 26.6309 71.6178 30.1426 68.0684C33.6921 64.5189 37.8079 61.7624 42.4902 59.7988C47.1725 57.7975 52.1569 56.7969 57.4434 56.7969C62.8053 56.7969 67.8086 57.7975 72.4531 59.7988C77.1354 61.7624 81.2324 64.5189 84.7441 68.0684C88.2559 71.6178 91.0124 75.7337 93.0137 80.416C95.015 85.0605 96.0156 90.0449 96.0156 95.3691C96.0156 100.693 95.015 105.678 93.0137 110.322C91.0124 115.005 88.2559 119.102 84.7441 122.613C81.2324 126.163 77.1354 128.938 72.4531 130.939C67.8086 132.941 62.8053 133.941 57.4434 133.941ZM46.7949 115.193L57.5 107.377L68.2051 115.193C69.4512 116.1 70.6029 116.213 71.6602 115.533C72.7174 114.854 72.9629 113.702 72.3965 112.078L68.2617 99.5605L79.0234 91.8008C79.7409 91.3099 80.1751 90.668 80.3262 89.875C80.4772 89.0443 80.3073 88.3268 79.8164 87.7227C79.3255 87.0807 78.5137 86.7598 77.3809 86.7598L64.127 86.873L60.1055 74.2422C59.6146 72.694 58.7272 71.9199 57.4434 71.9199C56.1973 71.9199 55.3288 72.694 54.8379 74.2422L50.873 86.873L37.5625 86.7598C36.4674 86.7598 35.6745 87.0807 35.1836 87.7227C34.6927 88.3268 34.5228 89.0254 34.6738 89.8184C34.8249 90.6113 35.2591 91.291 35.9766 91.8574L46.7383 99.5605L42.5469 112.078C42.0182 113.664 42.2637 114.797 43.2832 115.477C44.3405 116.194 45.5111 116.1 46.7949 115.193ZM19.2676 68.4082L2.33203 37.9355C1.19922 35.972 0.632812 34.1784 0.632812 32.5547C0.632812 30.8932 1.18034 29.2695 2.27539 27.6836L18.0215 4.00781L43.9062 50.5664C38.8841 52.0768 34.2585 54.3802 30.0293 57.4766C25.8379 60.5729 22.2507 64.2168 19.2676 68.4082ZM44.3594 32.7246L26.5176 0.835938H88.4824L70.584 32.7246H44.3594ZM71.0371 50.5664L96.9219 4.00781L112.668 27.6836C113.763 29.2695 114.311 30.8932 114.311 32.5547C114.311 34.1784 113.763 35.972 112.668 37.9355L95.6758 68.4082C92.6927 64.2168 89.1055 60.5729 84.9141 57.4766C80.7227 54.3802 76.097 52.0768 71.0371 50.5664Z"/>
    </mask>
    <path d="M57.4434 133.941C52.1569 133.941 47.1725 132.941 42.4902 130.939C37.8079 128.938 33.6921 126.163 30.1426 122.613C26.6309 119.102 23.8743 115.005 21.873 110.322C19.9095 105.678 18.9277 100.693 18.9277 95.3691C18.9277 90.0449 19.9095 85.0605 21.873 80.416C23.8743 75.7337 26.6309 71.6178 30.1426 68.0684C33.6921 64.5189 37.8079 61.7624 42.4902 59.7988C47.1725 57.7975 52.1569 56.7969 57.4434 56.7969C62.8053 56.7969 67.8086 57.7975 72.4531 59.7988C77.1354 61.7624 81.2324 64.5189 84.7441 68.0684C88.2559 71.6178 91.0124 75.7337 93.0137 80.416C95.015 85.0605 96.0156 90.0449 96.0156 95.3691C96.0156 100.693 95.015 105.678 93.0137 110.322C91.0124 115.005 88.2559 119.102 84.7441 122.613C81.2324 126.163 77.1354 128.938 72.4531 130.939C67.8086 132.941 62.8053 133.941 57.4434 133.941ZM46.7949 115.193L57.5 107.377L68.2051 115.193C69.4512 116.1 70.6029 116.213 71.6602 115.533C72.7174 114.854 72.9629 113.702 72.3965 112.078L68.2617 99.5605L79.0234 91.8008C79.7409 91.3099 80.1751 90.668 80.3262 89.875C80.4772 89.0443 80.3073 88.3268 79.8164 87.7227C79.3255 87.0807 78.5137 86.7598 77.3809 86.7598L64.127 86.873L60.1055 74.2422C59.6146 72.694 58.7272 71.9199 57.4434 71.9199C56.1973 71.9199 55.3288 72.694 54.8379 74.2422L50.873 86.873L37.5625 86.7598C36.4674 86.7598 35.6745 87.0807 35.1836 87.7227C34.6927 88.3268 34.5228 89.0254 34.6738 89.8184C34.8249 90.6113 35.2591 91.291 35.9766 91.8574L46.7383 99.5605L42.5469 112.078C42.0182 113.664 42.2637 114.797 43.2832 115.477C44.3405 116.194 45.5111 116.1 46.7949 115.193ZM19.2676 68.4082L2.33203 37.9355C1.19922 35.972 0.632812 34.1784 0.632812 32.5547C0.632812 30.8932 1.18034 29.2695 2.27539 27.6836L18.0215 4.00781L43.9062 50.5664C38.8841 52.0768 34.2585 54.3802 30.0293 57.4766C25.8379 60.5729 22.2507 64.2168 19.2676 68.4082ZM44.3594 32.7246L26.5176 0.835938H88.4824L70.584 32.7246H44.3594ZM71.0371 50.5664L96.9219 4.00781L112.668 27.6836C113.763 29.2695 114.311 30.8932 114.311 32.5547C114.311 34.1784 113.763 35.972 112.668 37.9355L95.6758 68.4082C92.6927 64.2168 89.1055 60.5729 84.9141 57.4766C80.7227 54.3802 76.097 52.0768 71.0371 50.5664Z"
          fill="currentColor"/>
    <path d="M42.4902 130.939L41.7042 132.779L42.4902 130.939ZM21.873 110.322L20.0309 111.101L20.034 111.108L21.873 110.322ZM21.873 80.416L20.034 79.63L20.0309 79.6372L21.873 80.416ZM30.1426 68.0684L28.7283 66.6541L28.7208 66.6617L30.1426 68.0684ZM42.4902 59.7988L43.2637 61.6433L43.2763 61.6379L42.4902 59.7988ZM72.4531 59.7988L71.6617 61.6356L71.6707 61.6394L71.6797 61.6432L72.4531 59.7988ZM93.0137 80.416L91.1746 81.2021L91.1769 81.2075L93.0137 80.416ZM93.0137 110.322L91.1769 109.531L91.1746 109.536L93.0137 110.322ZM84.7441 122.613L83.3299 121.199L83.3224 121.207L84.7441 122.613ZM72.4531 130.939L71.6671 129.1L71.6617 129.103L72.4531 130.939ZM46.7949 115.193L47.9483 116.827L47.9614 116.818L47.9743 116.809L46.7949 115.193ZM57.5 107.377L58.6794 105.762L57.5 104.901L56.3206 105.762L57.5 107.377ZM68.2051 115.193L67.0257 116.809L67.0287 116.811L68.2051 115.193ZM72.3965 112.078L70.4974 112.705L70.5026 112.721L70.5081 112.737L72.3965 112.078ZM68.2617 99.5605L67.092 97.9383L65.9028 98.7957L66.3626 100.188L68.2617 99.5605ZM79.0234 91.8008L77.8941 90.1502L77.8737 90.1641L77.8537 90.1785L79.0234 91.8008ZM80.3262 89.875L82.2908 90.2492L82.2924 90.241L82.2939 90.2328L80.3262 89.875ZM79.8164 87.7227L78.2277 88.9376L78.2456 88.961L78.2642 88.9838L79.8164 87.7227ZM77.3809 86.7598V84.7598H77.3723L77.3638 84.7598L77.3809 86.7598ZM64.127 86.873L62.2212 87.4798L62.6688 88.8856L64.144 88.873L64.127 86.873ZM60.1055 74.2422L58.199 74.8467L58.1997 74.8489L60.1055 74.2422ZM54.8379 74.2422L52.9314 73.6377L52.9297 73.6432L54.8379 74.2422ZM50.873 86.873L50.856 88.873L52.3375 88.8856L52.7812 87.472L50.873 86.873ZM37.5625 86.7598L37.5795 84.7598L37.571 84.7598H37.5625V86.7598ZM35.1836 87.7227L36.7358 88.9838L36.7544 88.961L36.7723 88.9376L35.1836 87.7227ZM35.9766 91.8574L34.7373 93.4272L34.7742 93.4563L34.8125 93.4837L35.9766 91.8574ZM46.7383 99.5605L48.6348 100.196L49.104 98.7943L47.9024 97.9342L46.7383 99.5605ZM42.5469 112.078L40.6504 111.443L40.6495 111.446L42.5469 112.078ZM43.2832 115.477L44.4062 113.822L44.3994 113.817L44.3926 113.812L43.2832 115.477ZM19.2676 68.4082L17.5194 69.3798L19.0591 72.1502L20.897 69.5679L19.2676 68.4082ZM2.33203 37.9355L4.08019 36.964L4.07241 36.95L4.0644 36.9361L2.33203 37.9355ZM2.27539 27.6836L3.92118 28.82L3.93108 28.8056L3.94072 28.7912L2.27539 27.6836ZM18.0215 4.00781L19.7695 3.03599L18.1742 0.166602L16.3562 2.90025L18.0215 4.00781ZM43.9062 50.5664L44.4823 52.4817L46.8615 51.7661L45.6543 49.5946L43.9062 50.5664ZM30.0293 57.4766L28.8478 55.8628L28.8409 55.8679L30.0293 57.4766ZM44.3594 32.7246L42.614 33.7012L43.1866 34.7246H44.3594V32.7246ZM26.5176 0.835938V-1.16406H23.1068L24.7722 1.81248L26.5176 0.835938ZM88.4824 0.835938L90.2265 1.81484L91.8985 -1.16406H88.4824V0.835938ZM70.584 32.7246V34.7246H71.7549L72.328 33.7035L70.584 32.7246ZM71.0371 50.5664L69.2891 49.5946L68.0793 51.7707L70.465 52.4828L71.0371 50.5664ZM96.9219 4.00781L98.5872 2.90025L96.7691 0.166602L95.1739 3.03599L96.9219 4.00781ZM112.668 27.6836L111.003 28.7912L111.012 28.8056L111.022 28.82L112.668 27.6836ZM112.668 37.9355L110.921 36.9614L110.921 36.9615L112.668 37.9355ZM95.6758 68.4082L94.0463 69.5679L95.8813 72.1462L97.4226 69.3822L95.6758 68.4082ZM57.4434 131.941C52.4166 131.941 47.7006 130.991 43.2763 129.1L41.7042 132.779C46.6444 134.89 51.8972 135.941 57.4434 135.941V131.941ZM43.2763 129.1C38.8251 127.198 34.9232 124.566 31.5568 121.199L28.7284 124.027C32.4609 127.76 36.7908 130.678 41.7042 132.779L43.2763 129.1ZM31.5568 121.199C28.2301 117.872 25.6157 113.99 23.7121 109.536L20.034 111.108C22.133 116.019 25.0317 120.331 28.7284 124.027L31.5568 121.199ZM23.7152 109.543C21.8616 105.159 20.9277 100.441 20.9277 95.3691H16.9277C16.9277 100.946 17.9574 106.196 20.0309 111.101L23.7152 109.543ZM20.9277 95.3691C20.9277 90.2973 21.8616 85.5793 23.7152 81.1948L20.0309 79.6372C17.9574 84.5418 16.9277 89.7926 16.9277 95.3691H20.9277ZM23.7121 81.2021C25.6166 76.7463 28.233 72.8421 31.5643 69.475L28.7208 66.6617C25.0287 70.3936 22.1321 74.7211 20.034 79.63L23.7121 81.2021ZM31.5568 69.4826C34.9205 66.1189 38.8181 63.5075 43.2637 61.6432L41.7168 57.9544C36.7978 60.0172 32.4636 62.9189 28.7284 66.6541L31.5568 69.4826ZM43.2763 61.6379C47.7006 59.7468 52.4166 58.7969 57.4434 58.7969V54.7969C51.8972 54.7969 46.6444 55.8482 41.7042 57.9598L43.2763 61.6379ZM57.4434 58.7969C62.5498 58.7969 67.282 59.7484 71.6617 61.6356L73.2446 57.9621C68.3352 55.8467 63.0609 54.7969 57.4434 54.7969V58.7969ZM71.6797 61.6432C76.1234 63.5067 79.999 66.1159 83.3224 69.475L86.1659 66.6617C82.4658 62.9219 78.1475 60.018 73.2266 57.9544L71.6797 61.6432ZM83.3224 69.475C86.6537 72.8421 89.2702 76.7463 91.1746 81.2021L94.8527 79.63C92.7546 74.7211 89.858 70.3936 86.1659 66.6617L83.3224 69.475ZM91.1769 81.2075C93.0649 85.5889 94.0156 90.3025 94.0156 95.3691H98.0156C98.0156 89.7874 96.9651 84.5322 94.8504 79.6246L91.1769 81.2075ZM94.0156 95.3691C94.0156 100.436 93.0649 105.149 91.1769 109.531L94.8504 111.114C96.9651 106.206 98.0156 100.951 98.0156 95.3691H94.0156ZM91.1746 109.536C89.271 113.99 86.6567 117.872 83.3299 121.199L86.1584 124.027C89.8551 120.331 92.7538 116.019 94.8527 111.108L91.1746 109.536ZM83.3224 121.207C79.9963 124.569 76.1163 127.199 71.6671 129.1L73.2392 132.779C78.1545 130.678 82.4686 127.757 86.1659 124.02L83.3224 121.207ZM71.6617 129.103C67.282 130.99 62.5498 131.941 57.4434 131.941V135.941C63.0609 135.941 68.3352 134.892 73.2446 132.776L71.6617 129.103ZM47.9743 116.809L58.6794 108.992L56.3206 105.762L45.6155 113.578L47.9743 116.809ZM56.3206 108.992L67.0257 116.809L69.3845 113.578L58.6794 105.762L56.3206 108.992ZM67.0287 116.811C67.8472 117.406 68.7789 117.847 69.8076 117.948C70.8713 118.053 71.8689 117.777 72.7417 117.216L70.5786 113.851C70.3941 113.969 70.2872 113.976 70.1992 113.968C70.0762 113.956 69.809 113.887 69.3814 113.576L67.0287 116.811ZM72.7417 117.216C73.6854 116.609 74.3514 115.712 74.5933 114.577C74.8196 113.514 74.6365 112.427 74.2849 111.419L70.5081 112.737C70.7229 113.353 70.7002 113.653 70.6811 113.743C70.6769 113.763 70.6731 113.772 70.6723 113.774C70.6716 113.775 70.6715 113.775 70.6712 113.776C70.6707 113.776 70.6662 113.783 70.6537 113.794C70.6408 113.806 70.6174 113.826 70.5786 113.851L72.7417 117.216ZM74.2956 111.451L70.1608 98.9332L66.3626 100.188L70.4974 112.705L74.2956 111.451ZM69.4315 101.183L80.1932 93.423L77.8537 90.1785L67.092 97.9383L69.4315 101.183ZM80.1528 93.4514C81.2693 92.6875 82.0328 91.6038 82.2908 90.2492L78.3615 89.5008C78.3174 89.7322 78.2124 89.9323 77.8941 90.1502L80.1528 93.4514ZM82.2939 90.2328C82.5394 88.8826 82.2616 87.5604 81.3686 86.4615L78.2642 88.9838C78.353 89.0932 78.415 89.2059 78.3584 89.5172L82.2939 90.2328ZM81.4051 86.5078C80.3994 85.1926 78.8711 84.7598 77.3809 84.7598V88.7598C77.7668 88.7598 77.9905 88.8155 78.104 88.8604C78.2003 88.8985 78.2205 88.9282 78.2277 88.9376L81.4051 86.5078ZM77.3638 84.7598L64.1099 84.8731L64.144 88.873L77.398 88.7597L77.3638 84.7598ZM66.0327 86.2663L62.0112 73.6354L58.1997 74.8489L62.2212 87.4798L66.0327 86.2663ZM62.0119 73.6377C61.696 72.6414 61.1921 71.6961 60.3865 70.9934C59.5446 70.2589 58.5216 69.9199 57.4434 69.9199V73.9199C57.649 73.9199 57.7116 73.968 57.757 74.0076C57.8388 74.0789 58.024 74.2948 58.199 74.8467L62.0119 73.6377ZM57.4434 69.9199C56.3675 69.9199 55.3547 70.2695 54.5267 71.0075C53.7384 71.7101 53.2445 72.6504 52.9314 73.6377L56.7444 74.8467C56.9222 74.2858 57.108 74.065 57.1882 73.9935C57.2235 73.9621 57.2475 73.9504 57.2671 73.9432C57.2889 73.9352 57.3414 73.9199 57.4434 73.9199V69.9199ZM52.9297 73.6432L48.9648 86.2741L52.7812 87.472L56.7461 74.8412L52.9297 73.6432ZM50.8901 84.8731L37.5795 84.7598L37.5455 88.7597L50.856 88.873L50.8901 84.8731ZM37.5625 84.7598C36.0822 84.7598 34.5883 85.2086 33.5949 86.5078L36.7723 88.9376C36.7876 88.9176 36.8117 88.8888 36.8969 88.8544C36.9984 88.8133 37.2032 88.7598 37.5625 88.7598V84.7598ZM33.6314 86.4615C32.7531 87.5424 32.4525 88.8449 32.7092 90.1926L36.6385 89.4441C36.5931 89.2059 36.6323 89.1112 36.7358 88.9838L33.6314 86.4615ZM32.7092 90.1926C32.9622 91.5211 33.6954 92.6046 34.7373 93.4272L37.2159 90.2877C36.8228 89.9774 36.6875 89.7015 36.6385 89.4441L32.7092 90.1926ZM34.8125 93.4837L45.5742 101.187L47.9024 97.9342L37.1407 90.2311L34.8125 93.4837ZM44.8418 98.9255L40.6504 111.443L44.4434 112.713L48.6348 100.196L44.8418 98.9255ZM40.6495 111.446C40.319 112.437 40.1547 113.502 40.3798 114.541C40.6193 115.646 41.2592 116.531 42.1738 117.141L44.3926 113.812C44.3229 113.766 44.3042 113.738 44.3038 113.737C44.3025 113.735 44.3014 113.734 44.2998 113.73C44.2981 113.726 44.2937 113.715 44.2891 113.694C44.2688 113.6 44.2461 113.305 44.4442 112.711L40.6495 111.446ZM42.1602 117.132C43.0303 117.722 44.0347 118.024 45.1149 117.937C46.1584 117.853 47.1094 117.419 47.9483 116.827L45.6416 113.559C45.1965 113.874 44.9204 113.94 44.7933 113.95C44.7029 113.958 44.5934 113.949 44.4062 113.822L42.1602 117.132ZM21.0157 67.4366L4.08019 36.964L0.58387 38.9071L17.5194 69.3798L21.0157 67.4366ZM4.0644 36.9361C3.04087 35.162 2.63281 33.7155 2.63281 32.5547H-1.36719C-1.36719 34.6412 -0.642432 36.782 0.59966 38.935L4.0644 36.9361ZM2.63281 32.5547C2.63281 31.3613 3.01881 30.1269 3.92118 28.82L0.629597 26.5472C-0.658134 28.4122 -1.36719 30.4252 -1.36719 32.5547H2.63281ZM3.94072 28.7912L19.6868 5.11537L16.3562 2.90025L0.610065 26.576L3.94072 28.7912ZM16.2735 4.97964L42.1582 51.5382L45.6543 49.5946L19.7695 3.03599L16.2735 4.97964ZM43.3302 48.6512C38.0907 50.2269 33.2603 52.6323 28.8478 55.8628L31.2108 59.0903C35.2566 56.1282 39.6775 53.9267 44.4823 52.4817L43.3302 48.6512ZM28.8409 55.8679C24.4819 59.0881 20.7452 62.8829 17.6381 67.2485L20.897 69.5679C23.7561 65.5507 27.1938 62.0578 31.2177 59.0852L28.8409 55.8679ZM46.1048 31.7481L28.263 -0.140608L24.7722 1.81248L42.614 33.7012L46.1048 31.7481ZM26.5176 2.83594H88.4824V-1.16406H26.5176V2.83594ZM86.7384 -0.142967L68.8399 31.7457L72.328 33.7035L90.2265 1.81484L86.7384 -0.142967ZM70.584 30.7246H44.3594V34.7246H70.584V30.7246ZM72.7851 51.5382L98.6699 4.97964L95.1739 3.03599L69.2891 49.5946L72.7851 51.5382ZM95.2565 5.11537L111.003 28.7912L114.333 26.576L98.5872 2.90025L95.2565 5.11537ZM111.022 28.82C111.925 30.1269 112.311 31.3613 112.311 32.5547H116.311C116.311 30.4252 115.601 28.4122 114.314 26.5472L111.022 28.82ZM112.311 32.5547C112.311 33.7312 111.911 35.1867 110.921 36.9614L114.415 38.9097C115.615 36.7573 116.311 34.6255 116.311 32.5547H112.311ZM110.921 36.9615L93.929 67.4342L97.4226 69.3822L114.415 38.9096L110.921 36.9615ZM97.3052 67.2485C94.1982 62.8829 90.4614 59.0881 86.1024 55.8679L83.7257 59.0852C87.7495 62.0578 91.1873 65.5507 94.0463 69.5679L97.3052 67.2485ZM86.1024 55.8679C81.7224 52.6322 76.8878 50.2257 71.6092 48.65L70.465 52.4828C75.3063 53.928 79.7229 56.1282 83.7257 59.0852L86.1024 55.8679Z"
          fill="currentColor" mask="url(#path-1-inside-1_448_3013)"/>
</svg>