<svg xmlns="http://www.w3.org/2000/svg" viewBox="0 0 173 135" fill="none">
    <mask id="path-1-inside-1_448_3018" fill="currentColor">
        <path d="M91.7109 112.191C86.3112 112.191 81.6667 111.229 77.7773 109.303C73.9258 107.377 70.9616 104.602 68.8848 100.977C66.8457 97.3516 65.8262 92.9902 65.8262 87.8926V53.2285C65.8262 47.9421 66.8457 43.4108 68.8848 39.6348C70.9616 35.8587 73.9258 32.9701 77.7773 30.9688C81.6667 28.9297 86.3112 27.9102 91.7109 27.9102H146.539C151.977 27.9102 156.621 28.9297 160.473 30.9688C164.324 32.9701 167.27 35.8587 169.309 39.6348C171.385 43.4108 172.424 47.9421 172.424 53.2285V87.8926C172.424 92.9902 171.442 97.3516 169.479 100.977C167.515 104.602 164.683 107.377 160.982 109.303C157.282 111.229 152.826 112.191 147.615 112.191H146.709V126.748C146.709 129.014 146.124 130.807 144.953 132.129C143.82 133.488 142.215 134.168 140.139 134.168C138.704 134.168 137.344 133.809 136.061 133.092C134.777 132.374 133.247 131.26 131.473 129.75L111.082 112.191H91.7109ZM0.576172 72.8262V27.9102C0.576172 22.2083 1.6901 17.2806 3.91797 13.127C6.14583 8.97331 9.31771 5.78255 13.4336 3.55469C17.5872 1.28906 22.5527 0.15625 28.3301 0.15625H99.3574C106.23 0.15625 111.894 1.74219 116.35 4.91406C120.843 8.04818 123.883 12.4661 125.469 18.168V18.7344H91.7109C84.612 18.7344 78.4193 20.1504 73.1328 22.9824C67.8841 25.8145 63.8249 29.8359 60.9551 35.0469C58.0853 40.2201 56.6504 46.2806 56.6504 53.2285V87.8926C56.6504 94.4251 58.0286 100.184 60.7852 105.168L44.3594 119.498C42.5846 121.046 41.0365 122.16 39.7148 122.84C38.431 123.557 37.0716 123.916 35.6367 123.916C33.5599 123.916 31.9362 123.236 30.7656 121.877C29.5951 120.555 29.0098 118.743 29.0098 116.439V100.58H27.3672C22.1185 100.58 17.474 99.4661 13.4336 97.2383C9.43099 95.0104 6.27799 91.8197 3.97461 87.666C1.70898 83.5124 0.576172 78.5658 0.576172 72.8262Z"/>
    </mask>
    <path d="M91.7109 112.191C86.3112 112.191 81.6667 111.229 77.7773 109.303C73.9258 107.377 70.9616 104.602 68.8848 100.977C66.8457 97.3516 65.8262 92.9902 65.8262 87.8926V53.2285C65.8262 47.9421 66.8457 43.4108 68.8848 39.6348C70.9616 35.8587 73.9258 32.9701 77.7773 30.9688C81.6667 28.9297 86.3112 27.9102 91.7109 27.9102H146.539C151.977 27.9102 156.621 28.9297 160.473 30.9688C164.324 32.9701 167.27 35.8587 169.309 39.6348C171.385 43.4108 172.424 47.9421 172.424 53.2285V87.8926C172.424 92.9902 171.442 97.3516 169.479 100.977C167.515 104.602 164.683 107.377 160.982 109.303C157.282 111.229 152.826 112.191 147.615 112.191H146.709V126.748C146.709 129.014 146.124 130.807 144.953 132.129C143.82 133.488 142.215 134.168 140.139 134.168C138.704 134.168 137.344 133.809 136.061 133.092C134.777 132.374 133.247 131.26 131.473 129.75L111.082 112.191H91.7109ZM0.576172 72.8262V27.9102C0.576172 22.2083 1.6901 17.2806 3.91797 13.127C6.14583 8.97331 9.31771 5.78255 13.4336 3.55469C17.5872 1.28906 22.5527 0.15625 28.3301 0.15625H99.3574C106.23 0.15625 111.894 1.74219 116.35 4.91406C120.843 8.04818 123.883 12.4661 125.469 18.168V18.7344H91.7109C84.612 18.7344 78.4193 20.1504 73.1328 22.9824C67.8841 25.8145 63.8249 29.8359 60.9551 35.0469C58.0853 40.2201 56.6504 46.2806 56.6504 53.2285V87.8926C56.6504 94.4251 58.0286 100.184 60.7852 105.168L44.3594 119.498C42.5846 121.046 41.0365 122.16 39.7148 122.84C38.431 123.557 37.0716 123.916 35.6367 123.916C33.5599 123.916 31.9362 123.236 30.7656 121.877C29.5951 120.555 29.0098 118.743 29.0098 116.439V100.58H27.3672C22.1185 100.58 17.474 99.4661 13.4336 97.2383C9.43099 95.0104 6.27799 91.8197 3.97461 87.666C1.70898 83.5124 0.576172 78.5658 0.576172 72.8262Z"
          fill="currentColor"/>
    <path d="M77.7773 109.303L75.5413 113.775L75.55 113.779L75.5587 113.784L77.7773 109.303ZM68.8848 100.977L64.5269 103.428L64.5365 103.445L64.5463 103.462L68.8848 100.977ZM68.8848 39.6348L64.5037 37.2252L64.4944 37.2421L64.4852 37.259L68.8848 39.6348ZM77.7773 30.9688L80.0827 35.4055L80.0909 35.4013L80.099 35.3971L77.7773 30.9688ZM160.473 30.9688L158.133 35.3877L158.15 35.3967L158.167 35.4055L160.473 30.9688ZM169.309 39.6348L164.909 42.0105L164.918 42.0275L164.928 42.0444L169.309 39.6348ZM146.709 112.191V107.191H141.709V112.191H146.709ZM144.953 132.129L141.21 128.814L141.16 128.87L141.112 128.928L144.953 132.129ZM131.473 129.75L128.21 133.539L128.221 133.548L128.232 133.558L131.473 129.75ZM111.082 112.191L114.345 108.403L112.938 107.191H111.082V112.191ZM13.4336 3.55469L15.8137 7.95185L15.8208 7.94802L15.8279 7.94417L13.4336 3.55469ZM116.35 4.91406L113.45 8.98739L113.47 9.00133L113.489 9.01507L116.35 4.91406ZM125.469 18.168H130.469V17.4856L130.286 16.8281L125.469 18.168ZM125.469 18.7344V23.7344H130.469V18.7344H125.469ZM73.1328 22.9824L70.7717 18.575L70.7651 18.5786L70.7585 18.5821L73.1328 22.9824ZM60.9551 35.0469L65.3274 37.4724L65.3311 37.4656L65.3348 37.4589L60.9551 35.0469ZM60.7852 105.168L64.0722 108.936L67.1146 106.281L65.1606 102.748L60.7852 105.168ZM44.3594 119.498L47.6462 123.266L47.6464 123.266L44.3594 119.498ZM39.7148 122.84L37.4281 118.393L37.3512 118.433L37.2757 118.475L39.7148 122.84ZM30.7656 121.877L34.5545 118.614L34.5317 118.588L34.5086 118.562L30.7656 121.877ZM29.0098 100.58H34.0098V95.5801H29.0098V100.58ZM13.4336 97.2383L11.0019 101.607L11.0106 101.612L11.0193 101.617L13.4336 97.2383ZM3.97461 87.666L-0.414868 90.0603L-0.406513 90.0756L-0.398051 90.0909L3.97461 87.666ZM91.7109 107.191C86.8971 107.191 83.0479 106.333 79.996 104.822L75.5587 113.784C80.2854 116.124 85.7253 117.191 91.7109 117.191V107.191ZM80.0134 104.831C77.0144 103.331 74.7945 101.234 73.2232 98.491L64.5463 103.462C67.1286 107.969 70.8372 111.423 75.5413 113.775L80.0134 104.831ZM73.2426 98.5253C71.7097 95.8001 70.8262 92.3238 70.8262 87.8926H60.8262C60.8262 93.6567 61.9817 98.9031 64.5269 103.428L73.2426 98.5253ZM70.8262 87.8926V53.2285H60.8262V87.8926H70.8262ZM70.8262 53.2285C70.8262 48.5816 71.7207 44.9061 73.2843 42.0105L64.4852 37.259C61.9707 41.9155 60.8262 47.3025 60.8262 53.2285H70.8262ZM73.2658 42.0444C74.8627 39.141 77.1015 36.9546 80.0827 35.4055L75.4719 26.532C70.7501 28.9855 67.0605 32.5765 64.5037 37.2252L73.2658 42.0444ZM80.099 35.3971C83.1258 33.8102 86.9369 32.9102 91.7109 32.9102V22.9102C85.6855 22.9102 80.2075 24.0492 75.4557 26.5404L80.099 35.3971ZM91.7109 32.9102H146.539V22.9102H91.7109V32.9102ZM146.539 32.9102C151.359 32.9102 155.159 33.8133 158.133 35.3877L162.812 26.5498C158.083 24.0461 152.594 22.9102 146.539 22.9102V32.9102ZM158.167 35.4055C161.141 36.9507 163.352 39.1264 164.909 42.0105L173.708 37.259C171.187 32.591 167.507 28.9894 162.778 26.532L158.167 35.4055ZM164.928 42.0444C166.516 44.9325 167.424 48.5955 167.424 53.2285H177.424C177.424 47.2886 176.255 41.8891 173.69 37.2252L164.928 42.0444ZM167.424 53.2285V87.8926H177.424V53.2285H167.424ZM167.424 87.8926C167.424 92.3526 166.566 95.8549 165.082 98.5951L173.875 103.358C176.318 98.8483 177.424 93.6279 177.424 87.8926H167.424ZM165.082 98.5951C163.6 101.331 161.5 103.397 158.674 104.867L163.291 113.738C167.865 111.357 171.43 107.872 173.875 103.358L165.082 98.5951ZM158.674 104.867C155.842 106.341 152.219 107.191 147.615 107.191V117.191C153.434 117.191 158.721 116.116 163.291 113.738L158.674 104.867ZM147.615 107.191H146.709V117.191H147.615V107.191ZM141.709 112.191V126.748H151.709V112.191H141.709ZM141.709 126.748C141.709 128.148 141.362 128.642 141.21 128.814L148.696 135.444C150.885 132.973 151.709 129.879 151.709 126.748H141.709ZM141.112 128.928C141.047 129.006 141.008 129.03 140.95 129.054C140.871 129.088 140.633 129.168 140.139 129.168V139.168C143.413 139.168 146.542 138.032 148.794 135.33L141.112 128.928ZM140.139 129.168C139.58 129.168 139.057 129.039 138.5 128.727L133.621 137.457C135.631 138.58 137.828 139.168 140.139 139.168V129.168ZM138.5 128.727C137.616 128.233 136.366 127.349 134.713 125.942L128.232 133.558C130.129 135.172 131.938 136.516 133.621 137.457L138.5 128.727ZM134.735 125.961L114.345 108.403L107.819 115.98L128.21 133.539L134.735 125.961ZM111.082 107.191H91.7109V117.191H111.082V107.191ZM5.57617 72.8262V27.9102H-4.42383V72.8262H5.57617ZM5.57617 27.9102C5.57617 22.8614 6.55989 18.7796 8.32418 15.4903L-0.48824 10.7636C-3.17968 15.7816 -4.42383 21.5553 -4.42383 27.9102H5.57617ZM8.32418 15.4903C10.0935 12.1915 12.564 9.71089 15.8137 7.95185L11.0535 -0.842476C6.07146 1.85421 2.19817 5.75507 -0.48824 10.7636L8.32418 15.4903ZM15.8279 7.94417C19.1014 6.15858 23.2061 5.15625 28.3301 5.15625V-4.84375C21.8994 -4.84375 16.073 -3.58045 11.0393 -0.83479L15.8279 7.94417ZM28.3301 5.15625H99.3574V-4.84375H28.3301V5.15625ZM99.3574 5.15625C105.459 5.15625 110.036 6.55727 113.45 8.98739L119.249 0.840736C113.752 -3.07289 107.001 -4.84375 99.3574 -4.84375V5.15625ZM113.489 9.01507C116.95 11.4291 119.35 14.8293 120.652 19.5078L130.286 16.8281C128.415 10.103 124.736 4.66728 119.21 0.813052L113.489 9.01507ZM120.469 18.168V18.7344H130.469V18.168H120.469ZM125.469 13.7344H91.7109V23.7344H125.469V13.7344ZM91.7109 13.7344C83.9393 13.7344 76.9069 15.2883 70.7717 18.575L75.4939 27.3898C79.9317 25.0125 85.2846 23.7344 91.7109 23.7344V13.7344ZM70.7585 18.5821C64.6665 21.8692 59.9099 26.5799 56.5753 32.6348L65.3348 37.4589C67.7398 33.0919 71.1018 29.7597 75.5071 27.3827L70.7585 18.5821ZM56.5828 32.6214C53.2347 38.6567 51.6504 45.5806 51.6504 53.2285H61.6504C61.6504 46.9806 62.9358 41.7834 65.3274 37.4724L56.5828 32.6214ZM51.6504 53.2285V87.8926H61.6504V53.2285H51.6504ZM51.6504 87.8926C51.6504 95.1458 53.1867 101.76 56.4097 107.588L65.1606 102.748C62.8706 98.6073 61.6504 93.7044 61.6504 87.8926H51.6504ZM57.4982 101.4L41.0724 115.73L47.6464 123.266L64.0722 108.936L57.4982 101.4ZM41.0725 115.73C39.4474 117.148 38.2443 117.974 37.4281 118.393L42.0016 127.286C43.8286 126.347 45.7219 124.945 47.6462 123.266L41.0725 115.73ZM37.2757 118.475C36.7179 118.787 36.1957 118.916 35.6367 118.916V128.916C37.9475 128.916 40.1441 128.328 42.154 127.205L37.2757 118.475ZM35.6367 118.916C34.7609 118.916 34.6208 118.691 34.5545 118.614L26.9768 125.14C29.2516 127.781 32.3589 128.916 35.6367 128.916V118.916ZM34.5086 118.562C34.3689 118.404 34.0098 117.902 34.0098 116.439H24.0098C24.0098 119.584 24.8212 122.707 27.0227 125.192L34.5086 118.562ZM34.0098 116.439V100.58H24.0098V116.439H34.0098ZM29.0098 95.5801H27.3672V105.58H29.0098V95.5801ZM27.3672 95.5801C22.8451 95.5801 19.0522 94.6267 15.8479 92.8598L11.0193 101.617C15.8957 104.306 21.3919 105.58 27.3672 105.58V95.5801ZM15.8653 92.8694C12.7095 91.1129 10.2154 88.6099 8.34727 85.2412L-0.398051 90.0909C2.3406 95.0294 6.15247 98.9079 11.0019 101.607L15.8653 92.8694ZM8.36409 85.2718C6.57604 81.9937 5.57617 77.9062 5.57617 72.8262H-4.42383C-4.42383 79.2254 -3.15807 85.0311 -0.414868 90.0603L8.36409 85.2718Z"
          fill="currentColor" mask="url(#path-1-inside-1_448_3018)"/>
</svg>